<?xml version="1.0" encoding="iso-8859-1"?>
<!-- Generator: Adobe Illustrator 19.0.0, SVG Export Plug-In . SVG Version: 6.00 Build 0)  -->
<svg version="1.1" id="Capa_1" xmlns="http://www.w3.org/2000/svg" xmlns:xlink="http://www.w3.org/1999/xlink" x="0px" y="0px"
	 viewBox="0 0 512.001 512.001" style="enable-background:new 0 0 512.001 512.001;" xml:space="preserve">
<path style="fill:#FEDCA9;" d="M500.57,287.9c0.416-21.727-17.782-39.511-39.513-39.511h12.189
	c21.151,0,38.345-16.944,38.748-37.999c0.415-21.727-17.782-39.51-39.513-39.51H352.375v-25.891V60.717
	c0-21.151-16.944-38.345-37.999-38.748c-21.727-0.415-39.511,17.783-39.511,39.513v15.34c0,39.826-16.795,77.806-46.258,104.604
	l-53.19,48.379c-27.086,0-53.4,0-53.4,0V455.17l65.613,25.749c22.822,0,251.345,0,251.345,0c21.151,0,38.345-16.944,38.748-37.999
	c0.416-21.727-17.782-39.511-39.513-39.511h12.189c21.151,0,38.345-16.945,38.748-38c0.415-21.727-17.783-39.511-39.513-39.511
	h12.189C482.973,325.899,500.167,308.955,500.57,287.9z"/>
<rect y="198.818" style="fill:#82D2FF;" width="138.03" height="291.21"/>
<rect y="325.888" style="fill:#08B7FC;" width="138.03" height="164.15"/>
<circle style="fill:#F1F1F2;" cx="69.02" cy="424.948" r="25.346"/>
<g>
	<path style="fill:#FEC674;" d="M352.14,210.39h159.853c-0.403,21.055-17.597,37.999-38.748,37.999H352.14V210.39z"/>
	<path style="fill:#FEC674;" d="M352.14,287.889h148.392c-0.403,21.055-17.597,37.999-38.748,37.999H352.14V287.889z"/>
	<path style="fill:#FEC674;" d="M352.14,365.399h137.017c-0.403,21.055-17.597,37.999-38.748,37.999H352.14V365.399z"/>
	<path style="fill:#FEC674;" d="M352.14,442.92h125.564c-0.403,21.055-17.597,37.999-38.748,37.999H352.14V442.92z"/>
</g>
<g>
</g>
<g>
</g>
<g>
</g>
<g>
</g>
<g>
</g>
<g>
</g>
<g>
</g>
<g>
</g>
<g>
</g>
<g>
</g>
<g>
</g>
<g>
</g>
<g>
</g>
<g>
</g>
<g>
</g>
</svg>
