<?xml version="1.0" encoding="iso-8859-1"?>
<!-- Generator: Adobe Illustrator 19.0.0, SVG Export Plug-In . SVG Version: 6.00 Build 0)  -->
<svg version="1.1" id="Layer_1" xmlns="http://www.w3.org/2000/svg" xmlns:xlink="http://www.w3.org/1999/xlink" x="0px" y="0px"
	 viewBox="0 0 512 512" style="enable-background:new 0 0 512 512;" xml:space="preserve">
<polygon style="fill:#BCE4E9;" points="334.819,450.103 285.745,478.429 263.651,500.883 204.608,464.467 238.375,431.059 
	266.701,381.985 266.701,381.985 371.915,276.771 371.915,10 21.309,10 21.309,385.98 137.329,502 371.915,502 371.915,413.007 "/>
<polygon style="fill:#FF754F;" points="137.329,385.98 21.309,385.98 137.329,502 "/>
<path d="M298.05,310c-0.65,0-1.31-0.07-1.96-0.2c-0.64-0.12-1.271-0.32-1.87-0.57s-1.18-0.56-1.72-0.92
	c-0.55-0.359-1.06-0.779-1.521-1.24c-0.47-0.46-0.88-0.97-1.25-1.52c-0.359-0.54-0.67-1.12-0.92-1.73
	c-0.25-0.6-0.44-1.229-0.569-1.869c-0.131-0.641-0.2-1.301-0.2-1.95c0-0.65,0.069-1.31,0.2-1.95c0.13-0.64,0.319-1.27,0.569-1.88
	c0.25-0.601,0.56-1.18,0.92-1.72c0.37-0.551,0.78-1.061,1.25-1.521c0.46-0.46,0.971-0.88,1.521-1.24c0.54-0.37,1.12-0.67,1.72-0.92
	c0.61-0.25,1.23-0.45,1.87-0.58c1.29-0.25,2.62-0.26,3.91,0c0.64,0.13,1.27,0.33,1.87,0.58s1.19,0.55,1.73,0.92
	c0.55,0.36,1.061,0.78,1.52,1.24c0.46,0.46,0.88,0.97,1.239,1.521c0.36,0.54,0.671,1.119,0.921,1.72
	c0.25,0.61,0.439,1.24,0.569,1.88s0.2,1.3,0.2,1.95c0,0.649-0.07,1.31-0.2,1.95s-0.319,1.27-0.569,1.869
	c-0.25,0.61-0.561,1.19-0.921,1.73c-0.359,0.55-0.779,1.06-1.239,1.52c-0.46,0.461-0.971,0.881-1.52,1.24
	c-0.54,0.36-1.12,0.67-1.73,0.92c-0.601,0.25-1.23,0.45-1.87,0.57C299.359,309.93,298.7,310,298.05,310z"/>
<path d="M257.047,310H95.829c-5.522,0-10-4.478-10-10s4.478-10,10-10h161.218c5.522,0,10,4.478,10,10S262.569,310,257.047,310z"/>
<path d="M95.83,360.99c-0.65,0-1.311-0.07-1.96-0.2c-0.63-0.12-1.261-0.32-1.87-0.57c-0.601-0.25-1.181-0.56-1.72-0.91
	c-0.551-0.37-1.061-0.79-1.52-1.25c-0.46-0.46-0.88-0.97-1.24-1.52c-0.37-0.54-0.67-1.12-0.92-1.73c-0.25-0.6-0.45-1.229-0.58-1.87
	c-0.13-0.64-0.189-1.3-0.189-1.949c0-0.65,0.06-1.311,0.189-1.95c0.13-0.641,0.32-1.271,0.57-1.88c0.25-0.601,0.56-1.181,0.92-1.721
	c0.37-0.55,0.79-1.06,1.25-1.52s0.97-0.88,1.52-1.25c0.539-0.36,1.119-0.66,1.72-0.91c0.609-0.25,1.24-0.45,1.87-0.57
	c1.29-0.26,2.62-0.27,3.91,0c0.64,0.12,1.27,0.32,1.869,0.57c0.61,0.25,1.19,0.55,1.73,0.91c0.55,0.37,1.06,0.79,1.52,1.25
	s0.881,0.97,1.24,1.52c0.36,0.54,0.67,1.12,0.92,1.721c0.25,0.609,0.45,1.239,0.57,1.88c0.13,0.64,0.2,1.3,0.2,1.95
	c0,0.649-0.07,1.31-0.2,1.949c-0.12,0.641-0.32,1.27-0.57,1.87c-0.25,0.61-0.56,1.19-0.92,1.73c-0.359,0.55-0.78,1.06-1.24,1.52
	s-0.97,0.88-1.52,1.25c-0.54,0.351-1.12,0.66-1.73,0.91c-0.6,0.25-1.229,0.45-1.869,0.57C97.14,360.92,96.479,360.99,95.83,360.99z"
	/>
<rect x="95.83" y="68.11" style="fill:#FF754F;" width="202.22" height="67.64"/>
<path d="M298.047,145.75H95.829c-5.522,0-10-4.477-10-10V68.112c0-5.522,4.478-10,10-10h202.218c5.522,0,10,4.478,10,10v67.638
	C308.047,141.273,303.569,145.75,298.047,145.75z M105.829,125.75h182.218V78.112H105.829V125.75z"/>
<rect x="95.83" y="183.86" style="fill:#FFDA7E;" width="202.22" height="67.64"/>
<path d="M298.047,261.499H95.829c-5.522,0-10-4.477-10-10v-67.638c0-5.522,4.478-10,10-10h202.218c5.522,0,10,4.478,10,10v67.638
	C308.047,257.022,303.569,261.499,298.047,261.499z M105.829,241.499h182.218v-47.638H105.829V241.499z"/>
<rect x="330.533" y="227.884" transform="matrix(-0.7071 -0.7071 0.7071 -0.7071 407.4025 844.9572)" style="fill:#FF754F;" width="96.329" height="220.438"/>
<polygon style="fill:#1C849E;" points="263.651,500.883 204.608,464.467 238.375,431.059 285.745,478.429 "/>
<polygon style="fill:#FFDA7E;" points="285.745,478.429 334.819,450.103 266.701,381.985 238.375,431.059 "/>
<path d="M424.51,302.29c-0.65,0-1.3-0.07-1.95-0.2c-0.64-0.13-1.27-0.32-1.87-0.57s-1.19-0.56-1.73-0.92
	c-0.55-0.359-1.061-0.78-1.52-1.24c-0.46-0.46-0.88-0.97-1.239-1.52c-0.36-0.54-0.67-1.12-0.92-1.73
	c-0.25-0.6-0.44-1.229-0.57-1.869c-0.13-0.641-0.2-1.301-0.2-1.95c0-0.65,0.07-1.311,0.2-1.96c0.13-0.63,0.32-1.261,0.57-1.87
	c0.25-0.601,0.56-1.18,0.92-1.72c0.359-0.551,0.779-1.061,1.239-1.521c0.46-0.46,0.971-0.88,1.52-1.24
	c0.54-0.37,1.13-0.67,1.73-0.92s1.23-0.45,1.87-0.58c1.29-0.25,2.62-0.25,3.91,0c0.64,0.13,1.26,0.33,1.87,0.58
	c0.6,0.25,1.18,0.55,1.72,0.92c0.55,0.36,1.06,0.78,1.53,1.24c0.46,0.46,0.87,0.97,1.24,1.521c0.359,0.54,0.67,1.119,0.92,1.72
	c0.25,0.609,0.44,1.24,0.569,1.87c0.131,0.649,0.2,1.309,0.2,1.96c0,0.65-0.069,1.31-0.2,1.95c-0.13,0.64-0.319,1.27-0.569,1.869
	c-0.25,0.61-0.56,1.19-0.92,1.73c-0.37,0.55-0.78,1.06-1.24,1.52c-0.47,0.46-0.98,0.881-1.53,1.24c-0.54,0.36-1.12,0.67-1.72,0.92
	c-0.61,0.25-1.23,0.44-1.87,0.57C425.819,302.22,425.17,302.29,424.51,302.29z"/>
<path d="M500.691,294.23c0-2.652-1.054-5.195-2.929-7.071l-68.118-68.117c-3.906-3.904-10.236-3.904-14.142,0l-33.587,33.587V10
	c0-5.523-4.478-10-10-10H21.309c-5.522,0-10,4.477-10,10v375.979c0,0.113,0.013,0.225,0.017,0.338
	c0.004,0.112,0.009,0.223,0.017,0.335c0.029,0.428,0.075,0.852,0.158,1.269c0.001,0.004,0.001,0.007,0.002,0.011
	c0.084,0.424,0.205,0.838,0.343,1.246c0.035,0.103,0.072,0.205,0.11,0.307c0.144,0.385,0.306,0.763,0.496,1.128
	c0.011,0.021,0.019,0.044,0.031,0.065c0.203,0.381,0.439,0.744,0.691,1.098c0.064,0.09,0.13,0.179,0.198,0.267
	c0.268,0.351,0.551,0.692,0.867,1.008l116.021,116.02c0.236,0.236,0.482,0.458,0.738,0.667c0.161,0.132,0.33,0.248,0.498,0.368
	c0.099,0.071,0.193,0.149,0.294,0.217c0.186,0.124,0.381,0.233,0.574,0.344c0.09,0.052,0.176,0.11,0.268,0.159
	c0.186,0.099,0.378,0.182,0.569,0.269c0.106,0.048,0.209,0.104,0.317,0.148c0.174,0.072,0.352,0.128,0.529,0.19
	c0.131,0.046,0.26,0.099,0.393,0.139c0.164,0.05,0.333,0.085,0.499,0.125c0.15,0.037,0.297,0.081,0.449,0.111
	c0.174,0.035,0.35,0.053,0.525,0.078c0.147,0.021,0.292,0.05,0.441,0.065c0.286,0.028,0.575,0.039,0.863,0.043
	c0.038,0,0.076,0.006,0.115,0.006h234.586c5.522,0,10-4.478,10-10v-84.851l115.848-115.848
	C499.638,299.426,500.691,296.883,500.691,294.23z M287.39,465.933l-36.519-36.52l17.974-31.141l49.685,49.686l-22.022,12.712
	L287.39,465.933z M45.451,395.979h81.878v81.878L45.451,395.979z M147.329,492V385.979c0-5.522-4.478-10-10-10H31.309V20h330.606
	v252.628l-68.362,68.362H136.829c-5.523,0-10,4.478-10,10s4.477,10,10,10h136.724l-13.924,13.924
	c-0.042,0.042-0.076,0.087-0.117,0.129c-0.097,0.1-0.188,0.206-0.281,0.311c-0.136,0.153-0.27,0.305-0.395,0.464
	c-0.037,0.047-0.074,0.092-0.11,0.139c-0.058,0.077-0.111,0.158-0.166,0.236c-0.147,0.206-0.284,0.415-0.414,0.629
	c-0.034,0.056-0.075,0.107-0.108,0.164l-27.654,47.909l-32.811,32.463c-2.181,2.157-3.25,5.195-2.902,8.243
	c0.348,3.047,2.075,5.767,4.686,7.377L230.199,492H147.329z M220.681,462.632l17.656-17.469l33.323,33.323l-9.544,9.7
	L220.681,462.632z M361.915,492h-75.494l5.499-5.588l47.898-27.648c0.076-0.044,0.143-0.097,0.217-0.143
	c0.193-0.118,0.383-0.242,0.568-0.373c0.081-0.058,0.166-0.112,0.245-0.173c0.052-0.04,0.102-0.082,0.153-0.123
	c0.157-0.123,0.307-0.255,0.457-0.388c0.102-0.09,0.204-0.179,0.302-0.273c0.042-0.041,0.088-0.076,0.129-0.117l20.025-20.025
	L361.915,492L361.915,492z M334.818,435.961l-19.916-19.916l87.692-87.693c3.905-3.905,3.905-10.237,0-14.143
	c-3.906-3.904-10.236-3.904-14.143,0l-87.692,87.693l-19.917-19.917l22.56-22.56c1.239-0.788,2.29-1.839,3.078-3.078l72.505-72.505
	l43.587-43.587l53.976,53.976L334.818,435.961z"/>
<g>
</g>
<g>
</g>
<g>
</g>
<g>
</g>
<g>
</g>
<g>
</g>
<g>
</g>
<g>
</g>
<g>
</g>
<g>
</g>
<g>
</g>
<g>
</g>
<g>
</g>
<g>
</g>
<g>
</g>
</svg>
