<svg version="1.2" xmlns="http://www.w3.org/2000/svg" viewBox="0 0 1861 603" width="1061" height="344">
	<defs>
		<clipPath clipPathUnits="userSpaceOnUse" id="cp1">
			<path d="m-10-205.67h1781.33v1014.67h-1781.33z"/>
		</clipPath>
		<clipPath clipPathUnits="userSpaceOnUse" id="cp2">
			<path d="m697.34 410.33h1059.33v112h-1059.33z"/>
		</clipPath>
		<clipPath clipPathUnits="userSpaceOnUse" id="cp3">
			<path d="m-10-205.51h780v1014.4h-780z"/>
		</clipPath>
		<clipPath clipPathUnits="userSpaceOnUse" id="cp4">
			<path d="m-10-205.67h780v1014.67h-780z"/>
		</clipPath>
		<clipPath clipPathUnits="userSpaceOnUse" id="cp5">
			<path d="m763.33 279.67h1141.34v97.33h-1141.34z"/>
		</clipPath>
	</defs>
	<style>
		.s0 { fill: #b5813a } 
	</style>
	<g>
		<g id="Clip-Path" clip-path="url(#cp1)">
			<g>
				<g id="Clip-Path" clip-path="url(#cp2)">
					<g>
						<path fill-rule="evenodd" class="s0" d="m697.34 411.37c8.39 5.85 7.22 9.17 12.49 10.92 30.43 9.56 70.03 37.07 85.45 47.02 251.65 159.97 540.18-109.64 950.43 9.56 3.52 0.97 14.05-1.37 7.81-10.34-57.16-24.19-119.2-46.63-246.78-48.77-140.65-2.54-417.87 86.42-538.62 83.3-156.65-4.1-210.89-98.13-270.58-91.5z"/>
					</g>
				</g>
				<g id="Clip-Path" clip-path="url(#cp3)">
					<g>
						<g>
							<g id="Clip-Path" clip-path="url(#cp4)">
								<g>
									<g>
										<g>
											<g>
												<path class="s0" d="m419.99 367.31h1.33v8q0 2-1.33 7.33l-5.34 8.67q-2 3.33-3.33 5.33-1.34 2-2 3.33-1.34 1.34-1.33 2.67l-26 41.33-40 50.67q-27.34 34.67-70.67 54-43.34 19.33-86 28.67h-3.33q-2.67 0-4.67 0.33-2 0.33-4.67 1-2.67 0.67-4.66 0.67-2 0-4 0-30.01 0-50.67-18-20.67-18-31.33-45.34-10.67-27.33-10.67-55.33 0-17.33 2.33-33.33 2.33-16 7-32.67v-1.33q0-2.67-5.66-6-5.68-3.33-12-7-6.34-3.67-9.67-5.67-25.33-21.33-39.33-49.67-14-28.32-14-61.66 0-38 13.33-70.34 13.33-32.32 34-63v-6.66q-0.67-1.33-0.67-3.34 0-1.99 0-3.33 0-28.66 14-55.33 14-26.67 37.34-44 23.32-17.33 52-17.34 13.33 0 26.66 8 13.33 8 24.67 8h1.33q13.33-3.99 25.67-6.33 12.33-2.33 25.67-2.33 22 0 43 7.33 21 7.34 35 22.33 14 15.01 14 37.67-0.01 30.67-16.67 58.67-16.67 28-43.67 50-27 22-58.66 34.33-31.67 12.34-61.67 12.33-36.67 0.01-67.33-19.66-30.68-19.66-44-54.34-14 9.34-21.34 31-7.33 21.68-10.33 45-3 23.34-3 39.34 0.67 2.67 0.67 4.66 0 2.01 0 2.67 0.66 10.67 6.66 27.67 6 17 15.34 33.66 9.33 16.68 20.66 28 11.33 11.34 22.67 11.34 18.66-32.66 34.33-57.34 15.67-24.66 43-45.33 0.67 0 2-1.33 15.33-11.33 34-20 18.67-8.67 38.67-8.67 18 0 33.67 10 15.66 10 15.66 29.33 0 22.68-13.66 42.34-13.67 19.67-35.67 34.66-22 15.01-46 24.34-24 9.33-45.33 12h-3.34q-2.67 0-4.66 0-2.01 0-4.67 0.66-2.67 0.67-4.67 0.67-2 0-4.66 0-2.67 0-5.67-0.33-3-0.33-5.67-1-2.67-0.67-5.66-0.67-3.01 0-5.67 0h-1.33q-9.34 33.34-9.34 63.33 0 22 7.67 46 7.66 24 23.33 41 15.67 17 39 17 9.33 0 19-1.66 9.67-1.67 19-3.67 6-4.67 18-8.67 12-4 24.67-8.33 12.66-4.33 20-8.33 36-21.33 67.33-50.67 31.33-29.33 52.67-66l31.33-53.33 1.34 0.66v8q0.66 0.68 0.66 4v2.67q2-2 2.67-7.33 1.33-6 2.67-6zm-265.34-352.67q-20 0-40.33 14.67-20.34 14.67-34 36-13.67 21.33-13.67 42 24-28 54-49.34 30-21.33 64-35.33 0-3.33-6.66-5-6.68-1.66-14-2.33-7.34-0.67-9.34-0.67zm44.67 20h-0.67q-6 0-20.66 8.67-14.67 8.67-33.34 22-18.67 13.33-36.33 28-17.67 14.67-29 26.66-11.34 12.01-11.33 17.34 7.32 35.33 32 57 24.66 21.67 61.33 21.66 24.66 0.01 51-8.66 26.33-8.67 51-24 24.66-15.33 42-35.34v0.67q0 0.67 0.67 0.67 0.66 0 0.66-0.67 0-0.66-0.66-0.67h-0.67q14-15.99 22.33-34.33 8.33-18.33 8.34-38.33v-8q-4.67-25.33-26.67-36.67-22-11.33-46.67-11.33-0.67 0-8 0.66-7.33 0.68-16.66 2-9.34 1.34-16.34 3.34-7 2-7 4 0 10 6.67 20.66 6.66 10.67 6.67 22.67-0.01 9.34-2.67 20.33-2.67 11-10.67 17 0-1.32 1.34-4 1.33-1.32 1.33-4-0.67 0.68-2 4-1.34 3.34-3.33 3.34-1.34 0-1.34-2.67 0-3.33 0.34-6.67 0.32-3.32 1-6.66 0.66-3.33 0.66-6.67 0-3.33 0-6.67 0-4-1.33-15-1.34-10.99-4.33-20.66-3.01-9.67-7.67-9.67zm-12.67-15.33q-0.67 0-0.66 0.66-0.01 0.67 0.66 0.67 0.67 0 0.67-0.67 0-0.66-0.67-0.66zm1.34 0.66q-0.67 0.01-0.67 0.67 0 0.67 0.67 0.67 0.66 0 0.66-0.67 0-0.66-0.66-0.67zm115.33 4q-0.67 0.01-0.67 0.67 0 0.67 0.67 0.67 0.66 0 0.67-0.67-0.01-0.66-0.67-0.67zm2 1.34v0.66l10.67 6.67q-2-2.66-5-4.33-3.01-1.67-5.67-3zm14.67 10.66q-0.01-0.66-0.67-0.66zm22 32q0-8-4.67-14.67 0 5.34 2 10.67 2 4.67 2 10.66 0 2-0.66 4-0.67 1.34-0.67 2.67 0 1.34 0 2v0.67l0.67 0.66-1.34 4q2.67-3.99 4-5.33-0.67-4-1-8-0.33-4-0.33-7.33zm-266.67-7.34q-0.67 0.01-0.66 0.67-0.01 0.67 0.66 0.67 0.67 0 0.67-0.67 0-0.66-0.67-0.67zm145.34 20.67q-0.01 1.34 0.66 2 0-2-0.66-2zm0.66 4q0-0.66-0.66-0.67-0.67 0.01-0.67 0.67 0 0.67 0.67 0.67 0.66 0 0.66-0.67zm-158 0q-0.67 0-0.66 0.67-0.01 0.67 0.66 0.66 0.67 0.01 0.67-0.66 0-0.67-0.67-0.67zm157.34 3.33l-0.67 0.67h0.67zm-2.67 7.33q0 0.67 0.67 0.67-0.67 0-0.67 0.67 0 0.67 0.67 0.66 0.66 0.01 0.66-0.66 0-0.67-0.66-0.67 0.66 0 0.66-0.67 0-0.66-0.66-0.66-0.67 0-0.67 0.66zm0.67 2.67l-0.67-0.67v1.34l-0.67 0.66q0.67 0.68 0.67 1 0 0.34 0 0.34 0-0.66 0.67-1.34zm-159.34 2.67q-0.67 0-0.66 0.67-0.01 0.67 0.66 0.66 0.67 0.01 0.67-0.66 0-0.67-0.67-0.67zm151.34 9.33q-0.67 0.01-0.67-0.66 0-0.67 0.67-0.67 0.66 0 0.66 0.67 0 0.67-0.66 0.66zm-152.67 0.67q-0.67 0-0.67 0.67 0 0.67 0.67 0.66 0.66 0.01 0.67-0.66-0.01-0.67-0.67-0.67zm258.67 29.33q9.32-2.66 12-10.66 2.66-8 4.66-17.34-3.33 7.34-6.66 11.34l-1.34-0.67 0.67 1.33q0 0.68-1.33 2-1.34 1.34-1.34 2.67-1.33 0-2-0.67l0.67 1.34-1.33-0.67 0.66 0.67v1.33q0 1.34-0.66 1.33-0.67 0.67-2.34 3.67-1.67 3-1.66 4.33zm10-21.33q-0.01 0.67 0.66 0.67 0.67 0 0.67-0.67 0-0.66-0.67-0.67-0.67 0.01-0.66 0.67zm-0.67 0.67q0 0.67 0.67 0.66zm-2.67 4.67q0 0.67 0.67 0.67 0.66 0 0.66-0.67 0-0.66-0.66-0.67-0.67 0.01-0.67 0.67zm-2 2.67q0 0.67 0.67 0.66v-1.33q-0.67 0-0.67 0.67zm-5.33 8q-0.01 0.67 0.66 0.66 0.67 0.01 0.67-0.66 0-0.67-0.67-0.67-0.67 0-0.66 0.67zm-2 3.33q-0.01 0.67 0.66 0.67 0.67 0 0.67-0.67 0.66 0 0.67-0.67-0.01-0.66-0.67-0.66-0.67 0-0.67 0.66-0.67 0.01-0.66 0.67zm1.33 0q-0.67 0-0.67-0.67 0.67 0.01 0.67 0.67zm0.67 3.33q0.66 0.01 0.66-0.66 0-0.67-0.66-0.67-0.67 0-0.67 0.67 0 0.67 0.67 0.66zm-4.67 6q4-3.32 4-6-1.34 0.01-2.67 2.34-1.33 2.34-1.33 3.66zm-3.33-0.66q-0.01 0.67 0.66 0.66v-0.66zm2.67 2q0.66 0 0.67-0.67-0.01-0.66-0.67-0.67-0.67 0.01-0.67 0.67 0 0.67 0.67 0.67zm-0.67 0.66v-0.66h-0.66q-0.01 0.67 0.66 0.66zm-4.66 0.67q-0.01 0.67 0.66 0.67 0.67 0 0.67-0.67 0-0.66-0.67-0.67-0.67 0.01-0.66 0.67zm3.33 0q0 0.67 0.67 0.67zm-1.34 2q0.67 0 0.67-1.34h-0.67zm-0.66 1.34q0.66 0 0.66-0.67 0-0.66-0.66-0.67-0.67 0.01-0.67 0.67-0.67 0-0.67 0.67 0 0.67 0.67 0.66 0.66 0.01 0.67-0.66zm-0.67-0.67q0.66 0 0.67 0.67-0.67 0-0.67-0.67zm-0.67 2.67v-0.67h-1.33q0 0.67 1.33 0.67zm-261.33 0.66q-0.67 0.01-0.67 0.67 0 0.67 0.67 0.67 0.66 0 0.67-0.67-0.01-0.66-0.67-0.67zm259.33 1.34q0.67-0.67 0.67-1 0-0.33 0-0.34zm-260.67 1.34l-0.66 1.33q0.66-0.66 0.66-1 0-0.33 0-0.33zm258 2.66q0.67 0.01 0.67-0.66 0-0.67-0.67-0.67-0.67 0-0.66 0.67-0.01 0.67 0.66 0.66zm-8 2q0.67 0.01 0.67-0.66 0-0.67-0.67-0.67-0.67 0-0.66 0.67-0.01 0.67 0.66 0.66zm5.34-0.66v-0.67h-0.67q0 0.67 0.67 0.67zm-259.34 2.66q-0.66 0.01-0.66 0.67 0 0.67 0.66 0.67 0.67 0 0.67-0.67 0-0.66-0.67-0.67zm255.34 2.67q0.66 0 0.66-0.67 0-0.66-0.66-0.66-0.67 0-0.67 0.66 0 0.67 0.67 0.67zm-259.34 4q-0.66 0-0.66 0.67 0 0.67 0.66 0.66 0.67 0.01 0.67-0.66 0.67 0 0.67-0.67 0-0.66-0.67-0.67-0.67 0.01-0.67 0.67zm0.67 0.67q-0.67 0-0.67-0.67 0.67 0 0.67 0.67zm-2.67 2.66h-0.66q0 0.67 0.66 0.67zm-2 6q-0.66 0-0.66 0.67 0 0.67 0.66 0.66 0.67 0.01 0.67-0.66 0-0.67-0.67-0.67zm-2 2q0 0.67 0.67 0.67-0.67 0-0.67 0.66 0 0.67 0.67 0.67 0.67 0 0.67-0.67 0-0.66-0.67-0.66 0.67 0 0.67-0.67 0-0.66-0.67-0.67-0.67 0.01-0.67 0.67zm0 2.67h-0.66q0 0.67 0.66 0.66zm-2.66 2.67q-0.67 0-0.67 0.67 0 0.67 0.67 0.66 0.66 0.01 0.66-0.66 0-0.67-0.66-0.67zm0 2.67q-0.67 0-0.67 0.66 0 0.67 0.67 0.67 0.66 0 0.66-0.67 0-0.66-0.66-0.66zm64.66 10.66q0.67 0.01 0.67-0.66 0-0.67-0.67-0.67-0.67 0-0.66 0.67-0.01 0.67 0.66 0.66zm-68.66 0.67q-0.67 0-0.67 0.67 0 0.67 0.67 0.66zm71.33 0.67q-0.67 0 0.33 1 1 1 1 0.33 0-1.33-1.33-1.33zm-72 0.67q-0.67 0-0.67 0.66 0 0.67 0.67 0.67 0.67 0 0.67-0.67 0-0.66-0.67-0.66zm74.67 1.33l0.66 0.67q0-0.67-0.66-0.67zm-75.34 1.33q-0.66 0.01-0.66 0.67 0 0.67 0.66 0.67 0.67 0 0.67-0.67 0-0.66-0.67-0.67zm77.34 0q1.33 0.67 2.66 1.67 1.33 1 2.67 1.67-2-2.66-5.33-3.34zm-78.67 4h-0.67q0 0.67 0.67 0.67zm85.33 0l1.34 0.67q-0.68-0.67-1-0.67-0.34 0-0.34 0zm2.67 1.33q1.33 1.34 2.67 1.34-1.34-1.33-2.67-1.34zm-88.67 1.34q0 0.67 0.67 0.66v-0.66zm92.67 1.33q0.66 0 0.66-0.67 0-0.66-0.66-0.66-0.67 0-0.67 0.66 0 0.67 0.67 0.67zm-93.34 0.67h-0.66q0 0.67 0.66 0.66zm97.34 1.34q0.66 0 0.66-0.67 0-0.66-0.66-0.67-0.67 0.01-0.67 0.67 0 0.67 0.67 0.67zm-97.34 1.33q0.67 0 0.67-0.67 0-0.66-0.67-0.66-0.66 0-0.66 0.66 0 0.67 0.66 0.67zm-3.33 10.67h-0.67q0 0.67 0.67 0.66zm0.67 3.34q0.66 0 0.66-0.67 0-0.66-0.66-0.67-0.67 0.01-0.67 0.67-0.67 0-0.67 0.67 0 0.67 0.67 0.66 0.67 0.01 0.67-0.66zm-0.67-0.67q0.67 0 0.67 0.67-0.67 0-0.67-0.67zm-0.67 1.33v2l0.67-1.33zm0 3.33q-0.67 0.01-0.67 0.67 0 0.67 0.67 0.67 0.67 0 0.67-0.67 0-0.66-0.67-0.67zm-0.67 2q-0.66 0.01-0.66 0.67 0 0.67 0.66 0.67zm-0.66 6q0.66 0 0.66-0.67 0-0.66-0.66-0.67-0.67 0.01-0.67 0.67 0 0.67 0.67 0.67zm-0.67 5.33q0.67 0 0.67-0.67 0-0.66-0.67-0.66-0.67 0-0.67 0.66 0 0.67 0.67 0.67zm-0.67 0.67q0 0.67 0.67 0.66v-0.66zm0 2v2.66q0.67 0.01 0.67-1.33 0-1.33-0.67-1.33zm227.33 4q-18 0-41 13-23 13-44 33.33-21 20.34-35 42.33-14 22-14 40 4 1.34 10 1.34h6.67q20.66 0 46.67-8 25.99-8 49.66-22 23.67-14 39.34-32.34 15.66-18.32 15.66-39.66 0-14.66-10.33-21.34-10.34-6.66-23.67-6.66zm24 4q-4-4-8.66-4 0.66 0.67 2.66 0.66l2 2q0.67 0.67 1.67 0.67 1 0 1.67 0.67zm-251.34 0h-0.66q0 0.67 0.66 0.66zm254.67 2q-0.67 0.01-0.67 0.67 0 0.67 0.67 0.67 0.66 0 0.67-0.67-0.01-0.66-0.67-0.67zm-254.67 0.67q-0.66 0-0.66 0.67 0 0.67 0.66 0.66 0.67 0.01 0.67-0.66 0-0.67-0.67-0.67zm0 3.33h-0.66q0 0.67 0.66 0.67zm-0.66 3.33q0 0.67 0.66 0.67v-0.67zm1.34 6.67q0-2.66-0.67-2.67v2q0 0.67 0.67 0.67zm263.33 31.33q-0.67 0.01-0.67 0.67 0 0.67 0.67 0.67l-3.33 6q2.66 0 5-6 2.32-6 4-12.67 1.66-6.66 1.66-9.33v-0.67q-0.67-0.66-0.66-1 0-0.33 0-0.33l0.66-2q-0.67-0.67-0.66-2-0.01-1.33-0.67-2.67-1.34-4-2.67-4 0 1.34 0.34 2.67 0.32 1.34 1 2.66 0.66 2.01 0.66 5.34 0 10.67-5.33 22.66zm-264-26q0 0.67 0.67 0.67v-1.33q-0.67 0-0.67 0.66zm1.33 4v-0.66h-0.66q0 0.67 0.66 0.66zm0.67 7.34q0 2 0.67 1.33v-2.67q-0.67-0.66-0.67 1.34zm264 2q-0.67 0-0.67 0.66 0 0.67 0.67 0.67 0.66 0 0.67-0.67-0.01-0.66-0.67-0.66zm-262.67 3.33q0.67 0 0.67-0.67 0-0.66-0.67-0.66-0.66 0-0.66 0.66 0 0.67 0.66 0.67zm1.34 3.33v-0.66h-0.67q0 0.67 0.67 0.66zm1.33 6q0.67 0.01 0.67-0.66 0-0.67-0.67-0.67-0.67 0-0.67 0.67 0 0.67 0.67 0.66zm258 1.34q0-0.67 0-0.67 0 0 0-0.67 0.66 0.01 0.67 0.67-0.01 0.67-0.67 0.67zm-4.67 8q0.67 0 0.67-0.67 0-0.66-0.67-0.67-0.67 0.01-0.66 0.67-0.01 0.67 0.66 0.67zm-0.66 3.33v-1.33q-0.67 0.67-0.67 1.33zm-3.33 3.33v-0.66h-0.67q0 0.67 0.67 0.66zm-0.67 2q0.66 0.01 0.67-0.66-0.01-0.67-0.67-0.67-0.67 0-0.67 0.67 0 0.67 0.67 0.66zm-141.33 1.34q-0.67 0-0.67 0.66 0 0.67 0.67 0.67 0.66 0 0.66-0.67 0.67 0.01 0.67-0.66 0-0.67-0.67-0.67-0.67 0-0.66 0.67zm0.66 0.66q-0.67 0.01-0.66-0.66 0.66 0 0.66 0.66zm-1.33 0.67q-0.67 0-0.67 0.67 0 0.67 0.67 0.66 0.66 0.01 0.67-0.66-0.01-0.67-0.67-0.67zm-4.67 6.67q0 0.67 0.67 0.66-0.67 0.01-0.67 0.67 0 0.67 0.67 0.67 0.66 0 0.67-0.67-0.01-0.66-0.67-0.67 0.66 0.01 0.67-0.66-0.01-0.67-0.67-0.67-0.67 0-0.67 0.67zm-1.33 3.33h-0.67q0 0.67 0.67 0.67zm-2 2.66q-0.67 0.01-0.67 0.67 0 0.67 0.67 0.67 0.66 0 0.67-0.67-0.01-0.66-0.67-0.67zm-1.33 0.67q-0.67 0-0.67 0.67 0 0.67 0.67 0.66 0.66 0.01 0.66-0.66 0-0.67-0.66-0.67zm-1.34 2.67q-0.67 0-0.66 0.66-0.01 0.67 0.66 0.67 0.67 0 0.67-0.67 0-0.66-0.67-0.66zm-2.66 7.33h-0.67q0 0.67 0.67 0.67zm-0.67 0.66q-0.67 0.01-0.67 0.67 0 0.67 0.67 0.67 0.66 0 0.67-0.67-0.01-0.66-0.67-0.67zm-0.67 2.67l-0.66-0.67q-0.01 0.67 0.66 0.67zm-0.66 0.67q-1.34 1.34-1.34 2.66 1.33-1.32 1.34-2.66zm-2 3.33v0.67h0.66zm0 2.66q0-1.33-1.33-1.33 0 1.34 1.33 1.33zm-1.33 2h-0.67q0 0.67 0.67 0.67zm-1.33 1.33l-0.67 1.34h1.33zm-0.66 2.66q-1.34 0.01-1.34 3.34 1.33-1.33 1.34-3.34zm309.33 6.67l-0.67-0.67q0 0.67 0.67 0.67zm-312 1.33l-0.67-0.66q0 0.67 0.67 0.66zm-0.67 0q-0.67 0.01-0.66 0.67-0.01 0.67 0.66 0.67 0.67 0 0.67-0.67 0-0.66-0.67-0.67zm-37.33 3.34q0.66 0 0.67-0.67-0.01-0.66-0.67-0.67-0.67 0.01-0.67 0.67 0 0.67 0.67 0.67zm37.33-1.34q-2 0.01-2 3.34 2-2 2-3.34zm-35.33 2q0 2 3.33 2l-2-1.33zm32 0q-0.67 0-0.66 0.67-0.01 0.67 0.66 0.66 0.67 0.01 0.67-0.66 0-0.67-0.67-0.67zm0.67 2l-1.33 0.67h1.33zm316.67 0q-0.01 0.67 0.66 0.66zm-338 4.67q1.33 0.67 3 1.33 1.67 0.68 2.34 1.34 0-1.33-6-4-1.34-0.66-3-1.34-1.68-0.66-3-1.33 2.66 2.67 6.66 4zm337.34-2.67v-1.33l-0.67 1.33zm-4 6q0.66 0.01 0.67-0.66-0.01-0.67-0.67-0.67-0.67 0-0.67 0.67 0 0.67 0.67 0.66zm-0.67 2.67q0.67 0 0.67-0.67 0-0.66-0.67-0.66-0.67 0-0.66 0.66-0.01 0.67 0.66 0.67zm-1.33 1.33q0.66 0.01 0.67-0.66-0.01-0.67-0.67-0.67-0.67 0-0.67 0.67-0.67 0-0.66 0.66-0.01 0.67 0.66 0.67 0.67 0 0.67-0.67zm-0.67-0.66q0.67 0 0.67 0.66-0.67 0.01-0.67-0.66zm-1.33 4q0.66 0 0.67-0.67-0.01-0.66-0.67-0.67-0.67 0.01-0.67 0.67 0 0.67 0.67 0.67zm-315.33 6v4q1.32 0 2-4.67 0.66-4.66 0.66-6-0.67 0.67-0.66 1.33l-1.34 1.34q-0.67 0.67-0.66 4zm312.66-1.34q0.67 0.01 0.67-0.66 0-0.67-0.67-0.67-0.67 0-0.66 0.67-0.01 0.67 0.66 0.66zm-2.66 5.34v-0.67h-0.67v0.67zm-310.67 0.66l-2 2q2 0 2-2zm-2.66 3.34q-0.67 0-0.67 0.66 0 0.67 0.67 0.67 0.66 0 0.66-0.67 0-0.66-0.66-0.66zm2.66 0l-0.66 1.33q0.66-0.66 0.66-1 0-0.33 0-0.33zm-1.33 2v2l0.67-0.67zm306.66 2.67q0.67 0 0.67-0.67 0-0.66-0.67-0.67-0.67 0.01-0.66 0.67-0.01 0.67 0.66 0.67zm-308 0.66q0 2-0.66 2l1.33 0.67v-2.67zm306 1.34v-0.67h-0.67q0 0.67 0.67 0.67zm-306.67 2.66v5.34h0.67l0.67-1.34v-3.33q-0.67-0.66-0.67-1 0-0.33 0-0.33zm-0.67 6.66q0-0.66-0.66-0.66zm300.66 2v-0.67l-0.66 0.67zm-302.67 15.33q1.33-0.66 2-7.33 0.66-6.67 0.67-8-1.34 0-2 5.66-0.67 5.68-0.67 6.34zm0 2h-0.67q0 0.67 0.67 0.66zm0.67 3.34q-0.67 0-0.67 0.66 0 0.67 0.67 0.67zm-1.34 2l-0.66-0.67q-0.01 0.67 0.66 0.67zm-0.66 12.67q-0.67 1.33 0.66 4l0.67-0.67v-15.33h-0.67v1.33q-0.67 0-0.66 1.33zm282.66-5.33q0.67 0 0.67-0.67 0-0.66-0.67-0.66-0.67 0-0.66 0.66-0.01 0.67 0.66 0.67zm-9.33 2.67q0.66 0 0.67-0.67-0.01-0.66-0.67-0.67-0.67 0.01-0.67 0.67 0 0.67 0.67 0.67zm-273.33 8q-0.01 0.67 0.66 1.33v-1.33zm264.67 3.33q0.66 0 0.67-0.67-0.01-0.66-0.67-0.66-0.67 0-0.67 0.66 0 0.67 0.67 0.67zm-264 0.67v0.66h0.67zm-0.67 2q0 0.67 0.67 0.67 0.66 0 0.66-0.67 0-0.66-0.66-0.66-0.67 0-0.67 0.66zm1.33 7.34q-1.33 1.33 0.67 1.33 0-4-0.67-5.33zm0 3.33q0 0.67 0.67 0.67v-1.34q-0.67 0.01-0.67 0.67zm2 6q0.67 0 0.67-0.67 0-0.66-0.67-0.66-0.67 0-0.66 0.66-0.67 0.01-0.67 0.67 0 0.67 0.67 0.67 0.66 0 0.66-0.67zm-0.66-0.67q0.66 0.01 0.66 0.67-0.67 0-0.66-0.67zm0 2l0.66 0.67v-0.67zm1.34 4v-0.66h-0.67q0 0.67 0.67 0.66zm1.33 3.34q0-0.67-0.67-0.67zm0 2q0.67 0 0.67-0.67 0-0.66-0.67-0.66-0.67 0-0.66 0.66-0.01 0.67 0.66 0.67zm2 6q0-0.66-0.66-1.33-0.01 2 1.33 3.33-0.67-0.66-0.67-2zm1.34 5.33q0.66 0.01 0.66-0.66 0-0.67-0.66-0.67-0.67 0-0.67 0.67 0 0.67 0.67 0.66zm2 3.34v-1.34l-0.67-0.66q0 2 0.67 2zm1.33 4v-0.67h-0.67q0 0.67 0.67 0.67zm36 47.33h0.67q-0.67-0.67-1.34-0.67zm3.34 1.34q1.32 2 7 3 5.66 1 8.33 1l-16.67-4.67zm16.67 4.67q0 0.66 0.67 0.66z"/>
											</g>
										</g>
									</g>
									<g>
										<g>
											<g>
												<path class="s0" d="m681.31 208.64q28 8.67 41.67 29 13.67 20.34 13.67 50.33 0 36.01-12.67 78.34-12.67 42.33-35.33 84-22.67 41.67-53 76.33-30.34 34.66-66 55.33-35.67 20.67-74.34 20.67-37.33 0-58-24-20.66-24-20.66-59.33 0-15.33 3.66-29.67 3.67-14.33 9-27.67 0 0.67 0.67 0.67 0.67 0 0.67-0.67 0-0.66-0.67-0.66h-0.67q0.67-0.66 0.67-1.34l0.67 0.67q0-0.66-0.67-0.67 0 0 0.33 0 0.34 0 0.34 0 0.66 0.01 0.66-0.66 0-0.67-0.66-0.67v-0.67q0 0.01 0-0.66 0-0.67 0.66-0.67h0.67v-0.67q0 0.01 0-0.33 0-0.33 0-0.33-0.67 0-0.67-0.67 0-0.66 0.67-0.67h0.67q1.33-1.99 2.33-4.33 1-2.33 1.67-4.33-0.67 0-0.67-0.67 0-0.66 0.67-0.67h0.66q0 0.01 0-0.33 0-0.33 0-0.33-0.66 0-0.66-0.67 0-0.66 0.66-0.67 0.67 0.01 0.67 0.67 0-0.66 0.33-1 0.34-0.33 0.34-1v-0.67q0-0.66 0.66-0.66 0.67-0.67 0.67-1 0-0.33 0.67-1h-0.67q-0.67 0-0.67-0.67 0-0.66 0.67-0.67 0.67 0.01 0.67 0.67v0.67q9.33-19.33 18.33-38.34 9-18.99 12.33-39.66-0.67 6.67-1 13-0.33 6.34-0.33 7.66 0 2.68 0.67 3.34 2.66-1.33 3-4 0.33-2.66 0.33-5.34l4-31.33v-4q-2 0-3.33 4-1.34 4-2.67 9.33 0.67-3.32 0.67-6 0-2.66 0-5.33-2.67 0-5 0-2.34 0-5 0.67-2.67 0.67-5.34 1-2.67 0.33-5.33 0.33-10 0-10-10.67 0-2.66 4-7 4-4.32 9.33-9.66h0.67q-0.67 0-0.67 0.66 0 0.67 0.67 0.67 0.67 0 0.67-0.67 0-0.66-0.67-0.66 0.67 0 0.67-0.67v-0.67q0 0.01 0.33-0.33 0.33-0.33 0.33-0.33h0.67q0.67 0 0.67-0.67 0.66 0 0.66-0.67v-0.66q0.67 0 0.67-0.67l2-1.33q0 0 0.67 0 0.66 0 0.66-0.67v-0.67q0.67 0.68 0.67 1.34 0 0.67-1.33 2v-0.67q0-0.66-0.67-0.67-0.67 0.01-0.67 0.67v1.33h-1.33q-0.67-0.66-0.67 1.34-0.66 0.67-0.66 2l-1.34-0.67q0 2-0.66 2.67l-1.34-0.67q0.67 0.67 0.67 1.33 0 4-4.67 4v2l-1.33-1.33q0.67 1.34-0.33 4.33-1 3-3 3l-1.34-0.66q0.67 0.67 0.67 1.33 0 0.67 0.67 1.33 0 1.34 2 1.34 2-7.33 8-14.34 6-6.99 11.33-11.66-0.67-2-2-2l0.67-0.67q0 0.67 0.66 0.67v-0.67q0-0.66 0.34-0.67 0.33 0.01 0.33-0.66 0 2 0.67 2.66 1.33-1.32 1.33-4.66l0.67-0.67q0.66 0 0.66 0v-0.67h0.67q0 0 0.67 0 0.66 0.01 0.66-0.66v-0.67q0.67-0.66 1-1 0.33-0.33 1-1l1.34-0.67h-0.67l2-2q0 0.01-0.33 0.34-0.34 0.33-0.34 0.33 1.33 0 2 0.67 0 1.33 1.34 1.33v-2q0-1.33-0.67-2-0.67 0.67-1.33 0.67 8-9.33 7.33-11.34 1.33 0.01 1.33 2.67 5.33-3.33 7-12 1.67-8.66 3.67-14v-0.67q0-1.99 2-7.66 2-5.67 4.33-11.67 2.33-6 3.67-7.33v0.66l-15.33 48.67v0.67q5.33-1.33 12-6 7.33-5.33 10-6 0.66-0.67 1-0.67 0.33 0 0.33 0 1.33-1.33 5.33-3.33 4-1.33 4.67-2 4.67-4.67 10-4.67-2 2-3.33 2.67-2 0.67-4 2.66-0.67 0.01-0.67-0.33 0-0.33-0.67-0.33-2 0-5 2.66-3 2.68-4.33 4h1.33q2.67 0.01 2.67-0.66 0-1.33 2-2 0-0.66 0.67-0.34 0.66 0.34 0.66 1v-1.33l1.34 0.67q5.33 0 10-4.67 1.33-1.33 1.33-1.33 0 0.67 0.67 0.66 0.66 0.01 0.66-0.66 0-0.67-0.66-0.67 2.66-2.66 7.33-2.67v-0.66h0.67q-0.67 0-0.67-0.67 0-0.66 0.67-0.67 0.66 0.01 0.66 0.67v0.67q0.67 0 1.34-0.67 0.66-0.66 2-0.67-1.34-1.33 2-2.33 3.33-1 4-1v-2.67q-0.67 1.34-4 2.34-3.34 1-4.67 1 0-0.67 4.67-2.67 4-1.33 4-2.67v-8l-6.67-72.66-2-15.34v-1.33l-0.67-0.67q-2.66 3.34-6.66 10.67-4 7.34-4.67 8.67v-1.34q0-5.32 5.33-10.66 5.34-5.33 5.34-11.34 0-3.32-0.67-4 0 1.34-1.33 1.34 0-2 0.66-2.67 0.67-0.66 0.67-2.67l-7.33-42q-1.34-11.32-10-24-8.67-12.66-20-12.66-14.67 0-30 13-15.34 13-29.34 33.33-14 20.34-25.33 44.33-11.33 24-18.33 46-7 22.01-7.67 37.34 0 6.67 1.33 16.33 1.34 9.67 5.34 17.33 4 7.67 11.33 7.67 13.33 0 19-5 5.67-5 10.67-12.33 5-7.33 15.66-14v4.66q0.67 0.01 0.67 0.67 0 0.67-0.67 0.67h-0.66q0 2.67-1.34 6.66h0.67l2.67-5.33q0-0.66 0.66-3.33 0.67-2.67 2-2.67 0 16.67-15 28-15 11.34-32.33 11.33-17.33 0.01-24.67-15.66-7.33-15.66-7.33-32.34 0-16.66 6.67-40.33 6.67-23.66 18.33-49.33 11.66-25.67 27.33-47.67 15.67-22 33-36 17.34-14 35.34-14 18 0 25.66 5.67 7.67 5.67 11 15.33 3.33 9.67 6.67 21.33 3.33 11.68 12 24.34l2.67-2.67q0 2.67-0.67 3.33-1.33 1.34-1.33 2.67 0 2.67 0.66 3.33l1.34-1.33q-1.34 4-1.34 5.33l12.67 112.67 1.33 2q-0.66 0-0.66 2h1.33v-0.67h2v-1.33q1.33 0 2.67-0.67 0 0.67 0.66 0.67 0.67 0 0.67-0.67v-0.66q7.33-2.66 10-5.34-4.67 0.01-8 2.67l-0.67 0.67q-0.66 0-0.66 0-2.67 2.67-6.67 2.66 0.66-1.99 3.33-3.33 2.67-1.33 4-1.33 0-1.33 8.67-5.34 8.66-4 9.33-4l50.67-57.33q0.67-2 4.67-6l22.66-32.67q7.33-11.32 12-25.66 4.67-14.33 4.67-27.67 0-8-2-17.67-2-9.66-7.33-16.66-5.34-7-14.67-7-8 0-21.67 7-13.66 7-28.66 18-15 11-28.34 23l8.67-8.67q4.66-4.66 9.33-9.33 4.67-4.66 10-9.34h1.34l7.33-5.33-0.67-1.33-0.66 0.66q-0.67 0.01-1.34 0.67l-0.66-0.67q-1.34 1.34-1.34 2 0-1.33-1.33-1.33-2 0-1.33 2 0.66 1.34-0.67 2.67 0-0.67-0.67-2h-0.66q0 0.67-0.67 1.33-0.67 0.67-0.67 1.33l-0.66-1.33v2.67l-1.34-1.34q-2 2.01-2 2.67l-0.66-1.33q-0.67 0.67-0.67 1.33v1.33q-0.67 0.68-0.67 1.34l-0.66-1.34-1.34 0.67q1.34 0 1.34 2 0-0.66-1.34-0.67l-0.66-0.66q-1.34 0-3.67 1.66-2.34 1.68-1.67 3 0 0.01-0.33-0.33-0.33-0.33-0.33 0.33l-2 2q-0.67 0.68-2 2-1.34 1.34-4 3.34-5.34 5.33-5.34 6v0.66q-2.67 2.68-5.33 5.34-2.67 2.67-5.33 6-2.67 3.33-5 6.33-2.34 3-5 6.33-1.34 0.67-2 0.67 0 4.67-3.34 4.67 0 2.67-2 2.66 0-6 7.34-15 7.33-9 18-19 10.66-9.99 21-18.33 10.33-8.33 17-13 10.66-5.33 21.33-13.33 8.66-6.67 23.33-6.67 14 0 23.67 8.67 9.67 8.67 14.67 21.66 5 13.01 5 25.67 0 16-5.67 31.33-5.67 15.34-14.33 28.67-1.34 0-1.67 1.33-0.33 1.34-0.33 2l-15.34 22-35.33 43.34v0.66q0.67-0.66 3-0.66 2.33 0 5.67-0.67 8-1.33 8.66-2zm-23.33-174.67q0.67 0.01 0.67-0.66 0-0.67-0.67-0.67-0.67 0-0.67 0.67 0 0.67 0.67 0.66zm-4 1.34q0.67 0 0.67-0.67 0-0.66-0.67-0.67-0.67 0.01-0.67 0.67-0.66 0-0.66 0.67 0 0.67 0.66 0.66 0.67 0.01 0.67-0.66zm-0.67-0.67q0.67 0 0.67 0.67-0.67 0-0.67-0.67zm-3.33 2v-0.67q-0.67-0.66-0.67 0 0 0.67 0.67 0.67zm-2.67 1.33q0.67 0.01 0.67-0.66 0-0.67-0.67-0.67-0.66 0-0.66 0.67 0 0.67 0.66 0.66zm0.67-1.33l1.33 0.67q-0.67-0.67-1.33-0.67zm37.33 0.67q1.33 0.67 2 1.33 0.67 0.67 1.34 1.33-0.67-0.66-1.34-1.33-0.67-0.66-2-1.33zm-40 2q0.67 0 0.67-0.67 0-0.66-0.67-0.67-0.66 0.01-0.66 0.67 0 0.67 0.66 0.67zm4 0v-0.67q-0.66-0.66-0.66 0 0 0.67 0.66 0.67zm-4.66 0.66v-0.66q-0.67-0.67-0.67 0 0 0.67 0.67 0.66zm2.66 0.67q0.67 0 0.67-0.67 0-0.66-0.67-0.66-0.66 0-0.66 0.66 0 0.67 0.66 0.67zm-6 0.67q0.67 0 0.67-0.67 0-0.66-0.67-0.67-0.66 0.01-0.66 0.67 0 0.67 0.66 0.67zm2-0.67q0 0.67 0.67 0.67 0-1.33-1.33-1.34zm-4 2l0.66-0.66h-0.66zm-1.34 3.33q1.34 0 1.34-1.33h-1.34q0-2-0.66-2v1.33q0 2 0.66 2zm4-2l1.34-1.33q-1.34 0-1.34 1.33zm-1.33 0.67h0.67l-0.67-1.34zm-4.67-0.66l-1.33 0.66h1.33zm-2.66 5.34q0.66 0 2-0.67 1.33-0.66 1.33-1.33 0-1.33-1.33-1.34-2 0.01-2 3.34zm-1.34-1.34q0.67 0.01 0.67-0.66 0-0.67-0.67-0.67-0.66 0-0.66 0.67 0 0.67 0.66 0.66zm-2.66 0.67h0.66l-0.66-0.67zm0 3.34q0 0.67-0.67 0.66-0.67 0.01-0.67-0.66 0-0.67 0.67-0.67 0.67 0 0.67 0.67zm-8 4l0.66 0.66zm-2 2.67q0 0.67-0.66 0.67-0.67 0-0.67-0.67 0-0.66 0.67-0.67 0.66 0.01 0.66 0.67zm-100.66 2q0.66 0 0.66-0.67 0-0.66-0.66-0.66-0.67 0-0.67 0.66 0 0.67 0.67 0.67zm1.33 0l0.67 0.67q0-0.67-0.67-0.67zm92 2.67q0.67 0 0.67 0.66zm-4.67 2.67q0.67 0 0.67 0.33 0 0.34 0 0.34zm0 1.33q0 0.67-0.67 0.67-0.67 0-0.67-0.67 0-0.66 0.67-0.67 0.67 0.01 0.67 0.67zm100 0.67q-0.67-0.67-0.67 0 0 0.67 0.67 0.66zm-102 1.34q0-0.67 0.66-0.67 0.67 0 0.67 0.67 0 0.67-0.67 0.66-0.66 0.01-0.66-0.66zm0 1.33q0 0.67-0.67 0.67-0.67 0-0.67-0.67 0-0.66 0.67-0.67 0.67 0.01 0.67 0.67zm102.66 2q-0.66 0-0.66 0.67 0 0.67 0.66 0.66 0.67 0.01 0.67-0.66 0-0.67-0.67-0.67zm-235.33 2.67q0.67 0 0.67-0.67 0-0.66-0.67-0.67-0.67 0.01-0.67 0.67 0 0.67 0.67 0.67zm236.67 0.66q0-0.66-0.67-0.66-0.67 0-0.67 0.66 0 0.67 0.67 0.67 0.67 0 0.67-0.67zm0.66 2.67q0-0.66-0.66-0.67-0.67 0.01-0.67 0.67 0 0.67 0.67 0.67 0.66 0 0.66-0.67zm-1.33 5.33q0.67 0.01 0.67-0.66 0-0.67-0.67-0.67-0.67 0-0.67 0.67 0 0.67 0.67 0.66zm-128 15.34q-1.34 1.33-5.67 7-4.33 5.67-5.66 7.66-0.67 0.68-2 3-1.34 2.34-2.67 3.67 2.67-7.33 11-17 8.33-9.66 19.67-20.33-4.67 4.67-8.67 9-4 4.33-6 7zm128-12.67q0.67 0 0.67-0.67 0-0.66-0.67-0.66-0.67 0-0.67 0.66 0 0.67 0.67 0.67zm0 2v-0.67q-0.67-0.66-0.67 0 0 0.67 0.67 0.67zm-0.67 5.33q0-0.66 0.67-1.33-0.67-1.33-0.67-1.67 0-0.33 0-0.33zm-254.66 1.33q0.66 0.01 0.66-0.66 0-0.67-0.66-0.67-0.67 0-0.67 0.67 0 0.67 0.67 0.66zm254 2.67l1.33-2-0.67-0.67q-0.66 0.67-0.66 2.67zm-256.67 0.67v-0.67q-0.67-0.66-0.67 0 0 0.67 0.67 0.67zm-0.67 1.33q0.67 0 0.67-0.67 0-0.66-0.67-0.66-0.66 0-0.66 0.66 0 0.67 0.66 0.67zm257.34-1.33q-1.34 0-1.34 2 0 0.67 0.67 1.33 0-0.66 0.67-1.33zm-258.67 3.33q0.67 0 0.67-0.67 0-0.66-0.67-0.66-0.67 0-0.67 0.66 0 0.67 0.67 0.67zm256.67 1.33q-0.67 0-0.67 2 2 0.01 2-1.33-0.67-0.66-0.67-1 0-0.33 0-0.33v1.33q-0.66 0-0.66-0.67zm-259.34 2q0.67 0.01 0.67-0.66 0-0.67-0.67-0.67-0.66 0-0.66 0.67 0 0.67 0.66 0.66zm106 1.34q-0.66-0.67-0.66 0 0 0.67 0.66 0.66zm151.34 2q0 0.67 0.66 0.67-0.66 0-0.66 0.67 0 0.67 0.66 0.66 0.67 0.01 0.67-0.66 0-0.67-0.67-0.67 0.67 0 0.67-0.67 0-0.66-0.67-0.66-0.66 0-0.66 0.66zm-260.67 0.67v-0.67q-0.67-0.66-0.67 0 0 0.67 0.67 0.67zm-1.33 2.67q0.66 0 0.66-0.67 0-0.66-0.66-0.67-0.67 0.01-0.67 0.67-0.67 0-0.67 0.67 0 0.67 0.67 0.66 0.67 0.01 0.67-0.66zm110.66 0q0.67 0 0.67-0.67 0-0.66-0.67-0.67-0.66 0.01-0.66 0.67 0 0.67 0.66 0.67zm-111.33-0.67q0.67 0 0.67 0.67-0.67 0-0.67-0.67zm262.67 0.67q-0.67-0.67-0.67 0 0 0.67 0.67 0.66zm-0.67 0.67q-0.67 0-0.67 0.67 0 0.67 0.67 0.66 0.67 0.01 0.67-0.66 0-0.67-0.67-0.67zm-264 2.67q0.67 0 0.67-0.67 0-0.66-0.67-0.67-0.67 0.01-0.67 0.67-0.66 0-0.66 0.67 0 0.67 0.66 0.66 0.67 0.01 0.67-0.66zm263.33-1.34v2l0.67-0.66q-0.67-0.67-0.67-1 0-0.33 0-0.34zm-264 0.67q0.67 0 0.67 0.67-0.67 0-0.67-0.67zm-0.66 2v-0.67q-0.67-0.66-0.67 0 0 0.67 0.67 0.67zm264 0.67q-2.67 0-2.67 2.66 2.67 0.01 2.67-2.66zm-148 0.66l0.66 0.67q0-0.66-0.66-0.67zm-117.34 1.34v-0.67q-0.66-0.66-0.66 0 0 0.67 0.66 0.67zm263.34 2q-0.67-0.67-0.67 0 0 1.33 0.67 1.33zm-266 2h0.66q0-1.33-0.66-1.33zm264.66 1.33h-0.66q0 0.67 0.66 1.33zm-266 1.34v-0.67q-0.66 0-0.66 0.67zm264 1.33v2h0.66q0-2-0.66-2zm-266.67 2.67q0.67-0.67 0.67-1 0-0.33 0-0.34-0.67 0.68-0.67 1 0 0.34 0 0.34zm-0.67 1.33q0.67 0 0.67-0.67 0-0.66-0.67-0.66-0.66 0-0.66 0.66-0.67 0.01-0.67 0.67 0 0.67 0.67 0.67-0.67 0-0.67 0.66-0.67 0.01-0.67 0.67 0 0.67 0.67 0.67 0.67 0 0.67-0.67 0.66 0 0.66-0.67 0-0.66-0.66-0.66 0.66 0 0.66-0.67zm-0.66-0.67q0.66 0.01 0.66 0.67-0.66 0-0.66-0.67zm266 1.34q-0.67-0.67-0.67 0 0 0.67 0.67 0.66zm-266.67 0.67q0.67 0 0.67 0.67-0.67 0-0.67-0.67zm-1.33 2.67q0.66 0 0.66-0.67 0-0.66-0.66-0.67-0.67 0.01-0.67 0.67 0 0.67 0.67 0.67zm266.66-0.67q-1.33 0-1.33 2.67zm-267.33 2v-0.67q-0.67-0.66-0.67 0 0 0.67 0.67 0.67zm265.33 0.66q-0.67 0.01-0.67 0.67 0 0.67 0.67 0.67 0.67 0 0.67-0.67 0-0.66-0.67-0.67zm-0.67 1.34q-0.66 0-0.66 0.66h0.66zm-267.33 3.34q0.67 0 0.67-0.67 0-0.66-0.67-0.67-0.67 0.01-0.67 0.67 0 0.67 0.67 0.67zm265.33-0.67q-0.66 0-0.66 0.67 0 0.67 0.66 0.66 0.67 0.01 0.67-0.66 0-0.67-0.67-0.67zm-266 2v-0.67q-0.66 0.01-0.66 0.67zm-1.34 1.33l0.67 0.67q0-0.66-0.67-0.67zm122.67 0h0.67q0 0.68-0.67 1.34-1.33 1.33-1.33 2 0-1.33 0.66-2zm-124.66 5.33q1.33-2.66 1.33-4.67l-2 4zm266.67-3.33q-0.67 0-0.67 0.67h0.67zm-1.34 1.33q-0.66 0-0.66 0.67 0 0.67 0.66 0.66 0.67 0.01 0.67-0.66 0-0.67-0.67-0.67zm-0.66 1.33q-0.67-0.66-0.67 0 0 0.67 0.67 0.67zm-143.34 2q0-2 1.34-2 0 2-1.34 3.33zm-123.33 1.34q0.67-0.67 0.67-1 0-0.33 0-0.34-0.67 0.68-0.67 1 0 0.34 0 0.34zm122 0q0.67 0.67 0.67 1.33 0 0.67-1.34 0.67 0-1.33 0.67-2zm-122.67 2.66q0.67 0.01 0.67-0.66 0-0.67-0.67-0.67-0.66 0-0.66 0.67 0 0.67 0.66 0.66zm-0.66 1.34q0.66 0 0.66-0.67 0-0.66-0.66-0.67-0.67 0.01-0.67 0.67 0 0.67 0.67 0.67zm122.66-0.67q-0.66 2-2.66 2.67 0.66-2 2-3.34zm-123.34 2q0.67 0.01 0.67-0.66 0-0.67-0.67-0.67-0.66 0-0.66 0.67 0 0.67 0.66 0.66zm0 2q0-0.66-0.66-0.66 0.66 0 0.66-0.67 0-0.66-0.66-0.67-0.67 0.01-0.67 0.67 0 0.67 0.67 0.67-0.67 0-0.67 0.66 0 0.67 0.67 0.67 0.66 0 0.66-0.67zm262-0.66q-0.66-0.67-0.66 0 0 0.67 0.66 0.66zm-140.66 1.34q-0.67 0-0.67-0.67 0-0.66 0.67-0.67 0.66 0.01 0.66 0.67 0 0.67-0.66 0.67zm-2 1.33q0-1.33 0.66-1.33 0 1.33-0.66 1.33zm140-1.33q-0.67 0-0.67 0.66 0 0.67 0.67 0.67 0.66 0 0.66-0.67 0 0.67 0.67 0.67 0.67 0 0.67-0.67 0-0.66-0.67-0.66-0.67 0-0.67 0.66 0-0.66-0.66-0.66zm-260.67 1.33v-0.67q-0.67-0.66-0.67 0 0 0.67 0.67 0.67zm-1.33 0.67h0.66l-0.66-0.67zm121.33 0l0.67 0.67h-0.67zm-121.33 3.33q0.66 0 0.66-0.67 0-0.66-0.66-0.66-0.67 0-0.67 0.66 0 0.67 0.67 0.67zm-1.34 1.33v-1.33h-0.66v1.33zm120.66-1.33l0.67 1.33q-0.67-0.66-0.67-1 0-0.33 0-0.33zm-0.66 2v-0.67l0.66 0.67zm139.34 0q-0.67 0-0.67 0.67 0 0.67 0.67 0.66 0.66 0.01 0.66-0.66 0-0.67-0.66-0.67zm-139.34 2q-0.66-0.66-0.66-1 0-0.33 0-0.33zm-121.34 0v-0.67q-0.66-0.66-0.66 0 0 0.67 0.66 0.67zm118 4.66q0-4.66 2-4.66 0 2.67-2 4.66zm6-0.66v-1.34q0-0.66 0.67-1.33l0.67-1.33h0.66zm-124.66-2.67v-0.67l-0.67 0.67zm-1.33 1.33v-0.66q-0.67-0.67-0.67 0 0 0.67 0.67 0.66zm0 2.67v-0.67h-0.67zm125.33-0.66l-6 12.66q0-1.99 2.34-7.33 2.33-5.33 3-5.33zm-6.67 2.66q0-1.33 1.33-1.33 0 1.34-1.33 1.33zm-120 2q0.67 0.01 0.67-0.66 0-0.67-0.67-0.67-0.67 0-0.67 0.67 0 0.67 0.67 0.66zm-0.67 1.34v-1.34q-2 0.01-2 1.34zm118.67 1.33v-2q0.67 0.67 0.67 1 0 0.34 0 0.33zm-120 0l0.66 0.67q0-0.66-0.66-0.67zm0 2q0.66 0.01 0.66-0.66 0-0.67-0.66-0.67-0.67 0-0.67 0.67 0 0.67 0.67 0.66zm118.66 0.67q0-2 0.67-2 0 1.34-0.67 2zm-119.33 0.67v-1.34q-0.66-0.66-0.67 0 0.01 1.34 0.67 1.34zm117.33 2.66q0-2.66 1.34-2.66 0 2.67-1.34 2.66zm-118-0.66v-0.67q-0.66-0.66-0.66 0 0 0.67 0.66 0.67zm122 2.66q0-2 1.34-2 0 0.68-1.34 2zm-4.66-1.33q0.66 0 0.66 0.67zm-118.66 2v-0.67q-0.67-0.66-0.67 0 0 0.67 0.67 0.67zm118 0h0.66v0.66zm5.34 1.34q-0.67 0-0.67-0.67 0-0.66 0.67-0.67 0.66 0.01 0.66 0.67 0 0.67-0.66 0.67zm-124.67 0.66q0.67 0.01 0.67-0.66 0-0.67-0.67-0.67-0.66 0-0.67 0.67 0.01 0.67 0.67 0.66zm124 0.67l-6.67 14.67q0-3.33 2.34-9 2.33-5.67 4.33-7zm-5.33-0.67l0.66-0.67v0.67zm-118.66 2.67v-1.34l-0.67-0.66q0 2-0.67 2.66v4q1.34-1.32 1.34-4.66zm118-2l0.66 1.33h-1.33zm-1.33 3.33q0-0.66 0.66-0.66 0.67 0 0.67 0.66 0 0.67-0.67 0.67 0 0.67-0.66 0.67-0.67 0-0.67-0.67 0-0.66 0.67-0.67zm-0.67 3.34l-0.67-0.67q0.67-0.66 0.67-1 0-0.33 0-0.33zm-1.33 0q0.66 0 0.66 0.66 0 0.67-0.66 0.67-0.67 0-0.67-0.67 0-0.66 0.67-0.66zm-116.67 2v-1.34q-0.66 0.01-1 2.34-0.33 2.33-0.33 3 1.33 0 1.33-1.34zm116.67 1.34q-0.67 0-0.67-1.34 0-0.66 0.67 0zm-0.67 0.67v1.33h-0.67v-1.33zm-1.33 2.67q0-0.67 0.67-0.67 0.66 0 0.66 0.67 0 0.67-0.66 0.66-0.67 0.01-0.67-0.66zm52-0.67q-0.67 0-0.67 0.67 0 0.67 0.67 0.66 0.67 0.01 0.67-0.66 0-0.67-0.67-0.67zm-52.67 0.67q0.67 0 0.67 0.66zm-116.67 2v0.67q0.67 0.67 0.67 1.33v-3.33q-0.66 0.67-0.67 1.33zm116.67 0q0 0.67-0.67 0.67-0.66 0-0.66-0.67 0-0.66 0.66-0.66 0.67 0 0.67 0.66zm4.67 1.34q-0.67 0-0.67-1.34 0-0.66 0.67 0zm-5.34 1.34l-0.66-1.34h0.66zm4.67 0q-0.67 0.01-0.67-0.66 0-0.67 0.67 0zm-122-0.67q-0.66 0-0.67 0.67 0.01 0.67 0.67 0.66 0.67 0.01 0.67-0.66 0-0.67-0.67-0.67zm1.33 0.67l-0.66 0.66v1.34q0.67 0 0.66-2zm119.34 0.66q0-0.66 0.66 0v0.67q-0.66 0-0.66-0.67zm-120.67 2q-0.66 0.01-0.67 0.67 0.01 0.67 0.67 0.67 0.67 0 0.67-0.67 0-0.66-0.67-0.67zm114 3.34q0-0.67 0.33-2 0.33-1.33 1.67-1.34l-1.33 4zm6.66-3.33q0 3.34-2 5.33 0-3.33 2-5.33zm128 0q-0.66 0-0.66 0.67 0 0.67 0.66 0.66 0.67 0.01 0.67-0.66 0-0.67-0.67-0.67zm-249.33 8v1.33q1.34-0.66 1.67-3.66 0.33-3 0.33-3.67h-0.67q-0.66 0.67-0.66 2-0.67 0.67-0.67 4zm246.67-5.33q-0.67-0.67-0.67 0 0 0.67 0.67 0.66zm-0.67 0.67q-0.67 0-0.67 0.67 0 0.67 0.67 0.66 0.67 0.01 0.67-0.66 0-0.67-0.67-0.67zm-132 2q1.33 0 0-1.33 0.67 0 0.67 1.33 0 1.34-1.34 1.33 0-1.33 0.67-1.33zm104 305.33l28-34q22-26.66 40-62.33 18-35.66 28.33-74 10.34-38.33 10.34-72.33 0-25.33-12.67-44.34-12.67-19-38.67-19-6.66 0-18.66 1-12 1.01-16.67 5.67l-53.33 50.67v28q0 4.67 0 9.66 0 5.01 0.66 10.34 28 1.33 50.34 16 22.33 14.67 22.33 44 0 20.67-10.33 39-10.34 18.33-32.34 18.33-1.33-1.33-2.66-1.33l-0.67 0.66q-0.67 0.01-1.33 0.67-10.67 0-12.34-10.67-1.66-10.66-1.66-19.33 0-3.33 1.33-9.67 1.33-6.32 4-12 2.67-5.66 6-5.66h0.67q0 2-0.67 2.66-0.67 1.34-0.67 3.34l0.67 0.66q0.67 0.68 0.67 1.34-2 0.67-3.67 7.66-1.67 7-1.67 9 0.67 2 0.67 10 0 7.34 3.33 8.67v-8l-0.66-1.33q0-1.33 0.66-2v-2q0-0.67 0-0.67 0 0 0-0.67-0.66-1.32-0.66-2 0-2 0.33-6 0.33-3.99 1.67-5.33 0-2.66 2.33-7.33 2.33-4.66 5-5.34v2.67q-2.67 9.34-3.33 15-0.67 5.67-0.67 15.67 0 7.33 2.67 8 8 0 13.66-8.67 5.67-8.66 8.67-20.33 3-11.67 3-19 0-23.33-15-35.34-15-12-36.33-12-5.34 0.01-4 3.34l-16 128q-0.67 13.34-6 32.66-5.34 19.34-15.34 34-10 14.67-26.66 14.67-15.34 0-22-15-6.67-15-11.34-29 0.67-2 0-2.67 0 0.01-1.33-1.33-7.33-26.66-9.33-48.67 0-4.66 0-13.66 0-9-0.67-17-0.67-8-2.67-10l-6.66 6.66q6.66-11.33 6.66-15.33-2 0-5.33 5.33-1.34 2.67-2.67 4.67-1.33 2-2 3.33l-1.33-0.66q0.67 0.67 0.67 2 0 3.33-4 7.33-4 4-5.34 7.33l-1.33-0.66q0.67 0.67 0.67 1.33 0 1.34-3 10-3 8.67-7 17.67-4 9-6.67 13 0-0.67-0.67-0.67-0.66 0-0.66 0.67 0 0.67 0.66 0.66h0.67q-0.67 0.68-1 1-0.33 0.34-0.33 0.34l0.66 0.66-1.33 0.67q0.67 0 0.67 1.33v0.67q-0.67 0.67-0.67 2-0.67 0.67-0.67 1.33 0 0.68-0.66 1.34l0.66 0.66-0.66 3.34q-0.67-0.67-1.34-0.67 0.67 0.67 0.67 2-0.67 0-1.33 0.67 0.66 0 0.66 1.33 0-0.66-0.66-0.67-0.67 0.01-0.67 0.67 0 0.67 0.67 0.67 0.66 0 0.66-0.67 0 0.67-0.66 1.33v2.67q0-0.66-0.67-0.67-0.67 0.01-0.67 0.67 0 0.67 0.67 0.67 0.67 0 0.67-0.67v4l-0.67 0.67v5.33q-1.33 0-1.33 2.67h0.66v6.66q-0.66 0.01-0.66 1.34v19.33q1.33 0 3.33 9.67 2 9.66 2.67 13 2 4.66 6.66 10-1.33-1.34-1.33-2.67 0-1.34-1.33-2.67-4-9.33-5.67-19.33-1.67-10-1.67-20 0-1.33 0-3.33 0-2 0.67-4 0.67-1.33 0.67-3.34 0-1.99 0-3.33 2-18.66 6.66-34.67 4.67-15.99 11.34-32.66l3.33-3.34q-9.33 18.67-14 41.67-4.67 23-4.67 41 0 30.67 16.34 51.67 16.33 21 47.66 21 20.67 0 43.34-10 22.66-10 42.66-25 20-15 32.67-30.34zm-100-302.66q0 0.67-0.67 0.66 0-2.66 1.34-2.66v1.33zm-4.67 0q0 0.67-0.67 0.67-0.66 0-0.66-0.67 0-0.66 0.66-0.67 0.67 0.01 0.67 0.67zm193.33 4.67q0-1.33-3-3-3-1.67-4.33-1.67 1.33 1.34 3.67 3 2.33 1.67 3.66 1.67zm-194-2l-0.66-1.34h1.33zm-113.33 2.67v4q1.33 0 1.33-1.33v-6q-1.33 0-1.33 3.33zm117.33-3.33q0.67 0 0.67 0.66zm-5.34 1.34q0-0.67 0.67-0.67 0.67 0 0.67 0.67 0 0.67-0.67 0.66-0.67 0.01-0.67-0.66zm62 0.66q-0.66-0.66-0.66 0 0 0.67 0.66 0.67zm-56.66 0q0 0.67-0.34 2.33-0.33 1.67-1.66 1.67 0-1.33 0.66-2 0-1.33 0.67-2zm-6 3.33q0 2-1.33 2 0-3.33 2-3.33 0 0.67-0.67 1.33zm-2 3.34q0-0.67 0.67-0.67 0.66 0 0.66 0.67 0 0.67-0.66 0.66-0.67 0.01-0.67-0.66zm-109.33 0q-0.67 0-0.67 0.66 0 0.67 0.67 0.67 0.67 0 0.66-0.67 0.01-0.66-0.66-0.66zm202.66 0v0.66l0.67-0.66zm-202.67 2q-0.66-0.67-0.66 0 0 1.33 0.66 1.33zm108 2q0-1.33 0.67-1.33v2.66q-0.67-0.66-0.67-1 0-0.33 0-0.33zm-108 2q0.01-2-0.66-2l0.66 3.33zm192.67 0q-0.67 0.01-0.67-0.66v-0.67q0 0 0.67 0 0.67 0 0.67 0.67 0 0.67-0.67 0.66zm-85.33 0q0-0.66 0.66-0.66v0.66zm83.34 0.67h0.66q-0.67 0.67-1.33 0.67 0-0.67 0.67-0.67zm-83.34 0.67v0.66l-0.66-0.66zm0 1.33q0 0.67-0.67 0.67-0.67 0-0.67-0.67 0-0.66 0.67-0.67 0.67 0.01 0.67 0.67zm68 0q-0.67 0-0.67 0.67 0 0.67 0.67 0.66 0.66 0.01 0.66-0.66 0-0.67-0.66-0.67zm-72 8.67q0-1.33 0.66-4.67 0.67-3.33 2.67-3.33 0 4.67-3.33 8zm80.66-4v5.33q0-1.33 2-1.33l4-4q1.33-1.33 2-2 0.67-0.66 1.34-1.34h-0.67zm-184.67-2.66q2.01 0 0.67 2 0 2 1.33 3.33l-0.66-5.33zm2 6.66h-0.67l0.67 2zm101.33 1.34h0.67v1.33zm74 2q0-0.66-0.67-0.67-0.67 0.01-0.67 0.67 0 0.67 0.67 0.67 0.67 0 0.67-0.67zm-175.34 0q0.01 2 1.34 2 0-2-1.34-2zm64 0q-0.66 0-0.66 0.67 0 0.67 0.66 0.66 0.67 0.01 0.67-0.66 0-0.67-0.67-0.67zm36.67 0h0.67v2h-0.67zm52.67 0q0 1.34-4.34 3.33-4.33 2-5.66 2v-0.66q2.66 0 5.33-2.67 2-2 4.67-2zm176.66 1.33q-0.66 0.01-0.66 0.67 0 0.67 0.66 0.67 0.67 0 0.67-0.67 0-0.66-0.67-0.67zm-200 17.34q-16.67 9.33-28.33 17.33-11.67 8-11.67 27.33v1.34q1.33-0.66 2.67-1.34 1.33-0.66 2.67-1.33 1.33-0.66 2.33-1.33 1-0.66 2.33-1.34 8.67-5.33 21-13.33 12.34-8 23.34-15.67 11-7.66 15.66-12.33l3.34-3.33v-12h-1.34q-2.67 1.34-5.33 2.66-2.67 1.34-5.33 2.67l-8.67 4q-4.67 2.67-8 4-2 0-4.67 2.67zm-31.33-11.34q0-3.32 2-4 0 0.68-0.33 2.34-0.34 1.67-1.67 1.66zm-34-2.66l0.67-0.67h-0.67zm-0.67 0.67q-0.66-0.67-0.66 0 0 0.67 0.66 0.66zm-62.66 0.67q0 0.67 0.66 0.67 0.67 0 0.67-0.67 0-0.66-0.67-0.67-0.66 0.01-0.66 0.67zm1.33 2q0.67 0 0.67-0.67 0-0.66-0.67-0.66-0.66 0-0.67 0.66 0.01 0.67 0.67 0.67zm141.33 0q0-0.66 0.67-0.67zm-45.33 1.34v1.33q-0.67-0.66-1-0.67-0.34 0-0.34 0 0-2 0.67-2 0.67 0.01 0.67 1.34zm41.33 0q0-0.67 0.67-0.67 0.66 0 0.66 0.67 0 0.67-0.66 0.66-0.67 0.01-0.67-0.66zm192 0.66q-0.67-0.66-0.67 0 0 1.34 0.67 1.34zm-235.33 2.66q0-2 1.33-2 0 3.34-1.67 9.34-1.67 6-3 8.66-0.66-0.66-0.66-1.33 0-1.33 0.66-2v-1.33q1.33-1.33 2-6 0.67-2 0.67-3.34 0-1.32 0.67-2zm38-0.66q0-0.67 0.66-0.67 0.67 0 0.67 0.67 0 0.67-0.67 0.66-0.66 0.01-0.66-0.66zm198.66 4q-0.66 0-0.66 0.66 0 0.67 0.66 0.67 0.67 0 0.67-0.67 0-0.66-0.67-0.66zm-222 7.33v1.33q0.67 0.68 0.67 1.34l1.33-2h0.67q0.67 0 0.67 0.66v-2q1.33 0.01 2-0.66 0-0.67 1.33-0.67v-0.67q1.33 0.01 2.67-1.33 0.66-0.66 2-0.67h0.66q0-1.32-0.33-1.66-0.33-0.33-0.33-0.34-1.34 0-3.34 2-2 0.01-0.66 1.34-3.34 0-4 0.66-3.34 1.34-3.34 2.67zm13.34-6q-0.67 0-0.67 0.67 0 0.67 0.67 0.66 0.66 0.01 0.66-0.66 0 0.67 0.67 0.66 0.67 0.01 0.67-0.66 0-0.67-0.67-0.67-0.67 0-0.67 0.67 0-0.67-0.66-0.67zm210 4q0-2.66-1.34-2.67 0 1.34 1.34 2.67zm-216.67 1.33q0-0.66-0.67-0.66-0.66 0-0.66 0.66 0 0.67 0.66 0.67 0.67 0 0.67-0.67zm216.67 3.34q0.66-0.67 0.66-1 0-0.33 0-0.34 0-0.66-1.33-1.33 0 0.67 0.67 1.33zm-224-2h-0.67l0.67 0.67zm-0.67 2q0-1.33-1.33-1.33l0.66 0.66q0 0.67 0.67 0.67 0 0.67 0.67 0.67 0.66 0 0.66-0.67 0-0.66-0.66-0.67-0.67 0.01-0.67 0.67zm-96.67 0.67l-2.66-1.34q1.33 1.34 2.66 1.34zm86 3.33q-1.33 1.34-1.33 2 1.33 0 2-0.67 0-0.66 1.33-0.66 0-1.33 2.67-1.34 0.67 0.67 1 0.67 0.33 0 0.33 0l-0.66-1.33 1.33 0.66v-1.33h0.67q0.66 0 0.66 0 0 0 0.67 0 0 0 0.67-0.67v-1.33l-0.67-0.67q-3.33 3.34-7.33 3.34 0 1.33-1.34 1.33zm-84-3.33q-0.66 0-0.66 0.66h1.33q0-0.66-0.67-0.66zm91.34 0.66h0.66l-0.66 0.67zm228.66 0.67q0-0.67-0.66-0.67-0.67 0-0.67 0.67 0 0.67 0.67 0.66 0.66 0.01 0.66-0.66zm-231.33 2.66q0-0.66-0.67-0.66-0.66 0-0.66 0.66 0 0.67 0.66 0.67 0.67 0 0.67-0.67zm231.33 8q-0.67-2 0.67-2l-0.67-0.66v-6h-0.66v4.66q-0.67 2.01-0.67 5.34v1.33q0 0.67 0.67 1.33 0.66-0.66 0.66-4zm-240.66-6q-0.67 0.01-0.67 0.67 0 0.67 0.67 0.67 0.66 0 0.66-0.67 0-0.66-0.66-0.67zm2.66 0.67v1.33h0.67q0-1.33-0.67-1.33zm-8 2.67q-0.66 0-0.66 0.66 0 0.67 0.66 0.67 0.67 0 0.67-0.67 0-0.66-0.67-0.66zm-0.66 1.33q-0.67-0.66-0.67 0 0 1.34 0.67 1.33zm87.33 1.34q-0.67-0.67-0.67 0 0 0.67 0.67 0.66zm-88.67 0q-0.66 0.01-0.66 0.67 0 0.67 0.66 0.67 0.67 0 0.67-0.67 0-0.66-0.67-0.67zm-6 84v2.67q2 0 9.67-6 7.67-6 14.67-12.33 7-6.33 7-7 10.66-7.33 22-13.67 11.33-6.33 24-9.67 4.66 0 5.33-2 0-0.66 0-2 0-1.32 0.67-4v-19.33q-0.67-4-0.67-6.67 0-2.66 0-3.33h-0.67q-18.67 13.34-37 24.67-18.33 11.34-39.66 20.66l-0.67 0.67-4 27.33v4.67q-0.67 2-0.67 5.33zm2.67-82q0-0.66 0.67-0.66-0.67 0-0.67 0.66zm2 0q0.67 0.01 0.67 0.67 0 0.67-0.67 0.67-0.67 0-0.67-0.67 0-0.66 0.67-0.67zm2.67 0.67q0-0.66-0.67-0.67-0.67 0.01-0.67 0.67 0 0.67 0.67 0.67 0.67 0 0.67-0.67zm-1.34 8.67q-0.67 2.67-1 6-0.33 3.33-1.66 7.33v2q-0.67 0.67-0.67 2 3.33 0 4.67-3.33l4.66-21.34v-0.66q-4.67 2.67-6 8zm-6-7.34h0.67q-0.67 0.01-0.67 0.67zm0.67 4l-1.33-2.67q0 1.34 1.33 2.67zm1.33-2q0-0.66-0.66-0.67zm252 1.34v-1.34l-0.67-0.66q-1.33 0-1.33 2.66v4.67q0.66 0.67 1.33 0.67v-4.67q0-1.33 0.67-1.33zm-256.67-0.67h0.67q-0.67 0.67-0.67 0.67 0 0-0.67 0.66v-0.66q0-0.67 0.67-0.67zm98 0.67q0-0.67-0.67-0.67-0.66 0-0.66 0.67 0 0.67 0.66 0.66 0.67 0.01 0.67-0.66zm-99.33 0.66q0 0.67-0.67 0.67v-0.67q0-0.66 0.67 0zm4.66 22.67q0.67-2.66 1.67-5.67 1-2.99 1.67-5.66 0.66-3.33 1-6 0.33-2.66 0.33-5.34-4 0.01-10.67 6.34-6.67 6.33-12 14-5.33 7.67-5.33 11.66v0.67h2.67q4.66-2 10.33-4.67 5.66-2.66 10.33-5.33zm-2.66-22.67q-0.67 0.01-0.67 0.67 0 0.67 0.67 0.67 0.66 0 0.66-0.67 0 0.67 0.67 0.67 0.67 0 0.67-0.67 0-0.66-0.67-0.67-0.67 0.01-0.67 0.67 0-0.66-0.66-0.67zm-3.34 0.67v0.67q-0.67 0.67-1 1-0.33 0.33-1 1 0-2.67 2-2.67zm0.67 2.67v1.33q2 0 2-3.33-0.67 0.67-1.33 0.66v1.34zm-4 1.33q0-0.66 0.66 0zm-2.66 1.33q0 0.67-0.67 0.67-0.67 0-0.67-0.67 0-0.66 0.67-0.66 0.67 0 0.67 0.66zm1.33-0.66h0.67q-0.67 0.67-1.34 0.66 0-0.66 0.67-0.66zm104.67 1.33q0.66 0 0.66-0.67 0-0.66-0.66-0.66-0.67 0-0.67 0.66 0 0.67 0.67 0.67zm-104 0.67q-0.67 0-0.67-0.67 0-0.66 0.67-0.67 0.66 0.01 0.66 0.67 0 0.67-0.66 0.67zm262 1.33v-1.33q0-1.33-0.67-1.34v4.67q0-1.33 0.67-2zm-262.67-2v1.33q-0.67-0.66-1.33-0.66 0 0 0.33-0.34 0.33-0.32 0.33-1zm-2.66 0.67h1.33q-0.67 0-0.67 0.33 0 0.34 0 0.34zm0 0.66h0.67q-0.67 0.67-0.67 0.67 0 0-0.66 0.67v-0.67q0-0.66 0.66-0.67zm1.34 0q0.66 0.01 0.66 0.67zm-4 2.67q0 0.67-0.66 0.66-0.67 0.01-0.67-0.66 0-0.67 0.67-0.67 0.66 0 0.66 0.67zm2.67 0.66h-0.67q0 0-0.66 0zm-4 1.34h-0.67q0 0 0 0.33 0 0.34-0.67 0.33v-0.66q0-0.67 0.67-0.67 0-0.66 0.67-0.67h0.66q0 0.67-0.33 0.67-0.33 0-0.33 0zm268 1.33q0-0.66 0.66-1.33 0-0.66-1.33-1.33v4q0.67-0.67 0.67-1 0-0.33 0-0.34zm-266-0.66q-0.67-0.66-0.67-1.34 0 0.01 0.33 0.34 0.34 0.33 0.34 1zm-4.67 0.66h0.67q-0.67 0.67-0.67 0.67 0 0-0.67 0.67v-0.67q0-0.66 0.67-0.67zm114 2q0.67 0.01 0.67-0.66 0-0.67-0.67-0.67-0.67 0-0.67 0.67 0 0.67 0.67 0.66zm156 1.34q0.67 0 0.67-0.67 0-0.66-0.67-0.67-0.67 0.01-0.67 0.67 0 0.67 0.67 0.67zm-272 0q-0.67 0-0.67 0.66 0 0.67 0.67 0.67 0.67 0 0.67-0.67 0-0.66-0.67-0.66zm116.67 1.33q0-0.66-0.67-0.67-0.67 0.01-0.67 0.67 0 0.67 0.67 0.67 0.67 0 0.67-0.67zm-117.34 0.67l-1.33-0.67q0.67 0.67 0.67 1 0 0.34 0 0.33zm272.66 0.67v-0.67q-0.66-0.66-0.66 0 0 0.67 0.66 0.67zm-274 0q-0.66 0-0.66 0.67 0 0.67 0.66 0.66 0.67 0.01 0.67-0.66 0-0.67-0.67-0.67zm272.67 1.33q0.67 0.01 0.67-0.66 0-0.67-0.67-0.67-0.67 0-0.67 0.67 0 0.67 0.67 0.66zm0 3.34q0.67-0.67 0.67-2.67-0.67 0.67-0.67 2.67zm-276.67 0.66q-0.66 0.01-0.66 0.67 0 0.67 0.66 0.67 0.67 0 0.67-0.67 0.67 0 0.67-0.67 0-0.66-0.67-0.66-0.67 0-0.67 0.66zm0.67 0.67q-0.67 0-0.67-0.67 0.67 0.01 0.67 0.67zm134 0.67q0.67 0 0.67-0.67 0-0.66-0.67-0.67-0.67 0.01-0.67 0.67 0 0.67 0.67 0.67zm1.33-0.67q-0.66 0-0.66 0.67 0 0.67 0.66 0.66 0.67 0.01 0.67-0.66 0-0.67-0.67-0.67zm3.34 0.67h0.66l-0.66-0.67zm1.33 0q0 0.67 0.67 0.67 0.66 0 0.66-0.67 0-0.66-0.66-0.67-0.67 0.01-0.67 0.67zm136 0.67v-1.34l-0.67 1.34zm-145.33 0l0.67-0.67h-0.67zm16.67 0q0 0.67 0.66 0.67 0.67 0 0.67-0.67 0-0.66-0.67-0.67-0.66 0.01-0.66 0.67zm-149.34 0q-0.66 0-0.66 0.67 0 0.67 0.66 0.66 0.67 0.01 0.67-0.66 0-0.67-0.67-0.67zm277.34 2.67v-1.34q-1.34 1.34-1.34 2.67 0 3.34-0.66 4l0.66 0.67q1.34-2.67 1.34-6zm-274 2.66q0.66 0.01 0.66-0.66 0-0.67-0.66-0.67-0.67 0-0.67 0.67 0 0.67 0.67 0.66zm108.66-0.66q0-0.67-0.66-0.67-0.67 0-0.67 0.67 0 0.67 0.67 0.66 0.66 0.01 0.66-0.66zm38 0.66q0-0.66-0.66-0.66-0.67 0-0.67 0.66 0 0.67 0.67 0.67 0.66 0 0.66-0.67zm-46 0.67q0-0.66-0.66-0.67-0.67 0.01-0.67 0.67 0 0.67 0.67 0.67 0.66 0 0.66-0.67zm1.34 0.67h0.66v-0.67q-0.66 0-0.66 0.67zm47.33-0.67l0.67 0.67q0-0.67-0.67-0.67zm3.33 0.67q4 3.34 8.67 4.66 4.66 2.01 9.33 5.34-1.33-4.66-7.66-7.34-6.34-2.66-10.34-2.66zm-53.33 0.66l-0.67 0.67h0.67zm3.33 0.67q0-0.67-0.66-0.67-0.67 0-0.67 0.67 0 0.67 0.67 0.66 0.66 0.01 0.66-0.66zm-4 0.66q0-0.66-0.66-0.66-0.67 0-0.67 0.66-0.67 0.01-0.67 0.67 0 0.67 0.67 0.67 0.67 0 0.67-0.67 0.66 0 0.66-0.67zm-1.33 0q0.67 0.01 0.67 0.67-0.67 0-0.67-0.67zm174.67 2l0.66-0.66-1.33-1.34zm-180 0.67q-0.67-0.66-0.67-1 0-0.33 0-0.33v2zm-69.33 62q-4 2.67-4 8 0 3.33 0.33 7 0.33 3.67 1 7 0.67 3.33 1 7.33 0.33 4-0.33 7.33 2.67 21.34 8.67 49 6 27.68 20.66 45v-0.66q-7.33-11.33-10-22 0-2.67-0.66-4 3.33 10.67 7.33 18-0.67 0-0.67 0.66 0 0.67 0.67 0.67h0.67q6.66 10.67 13.33 10.67 6.67 0 11.67-9 5-9 8.66-19.67 3.67-10.66 5-15.33 0.67-2 2.34-8.67 1.66-6.66 3-13.67 1.33-6.99 1.33-8.33l16-120.67-1.33-0.66q0-0.67-1.34-0.67-3.33 0-10 3.67-6.67 3.67-13 7.66-6.33 4.01-9.66 5.34-12.67 8.67-26.67 19-14 10.33-21.33 23l-1.34 2.66q0 5.34 1.34 23.34 1.33 18 5 40 3.66 22 9 40.66-0.67-1.32-1.34-3-0.67-1.66-1.33-3 0 0.67-0.67 0.67-0.66 0-0.66-0.67 0-0.66 0.66-0.66h0.67q-0.67 0-0.67-0.34 0-0.33 0-0.33 0 0.67-0.66 0.67-0.67 0-0.67-0.67 0-0.66 0.67-0.67h0.66q-2.67-4.66-4-9.33-5.33-20-8-42.67-2.67-22.66-1.33-42.66zm65.33-62q-0.66-0.67-0.66 0 0 1.33 0.66 1.33zm-93.33 0l4 2q-0.67-2-4-2zm91.33 1.33q0.67 0.01 0.67-0.66 0-0.67-0.67-0.67-0.66 0-0.66 0.67 0 0.67 0.66 0.66zm4-0.66q0-0.67-0.66-0.67-0.67 0-0.67 0.67 0 0.67 0.67 0.66 0.66 0.01 0.66-0.66zm182 0.66q0.67 0.01 0.67-0.66 0-0.67-0.67-0.67-0.66 0-0.66 0.67 0 0-0.34 0-0.33 0-0.33 0 0 2-1.33 6-1.34 4-1.34 6 2-2.66 2.67-5.34 0.66-2.66 1.33-5.33zm-0.66-0.67l0.66 0.67q-0.66 0-0.66-0.67zm-186 1.34q0-0.67-0.67-0.67-0.67 0-0.67 0.67 0 0.67 0.67 0.66 0.67 0.01 0.67-0.66zm2 0h-0.67l0.67 0.66zm-4 2q0-0.66-0.67-0.66zm-1.33 0.66q0-0.66-0.67-0.66zm-2 1.33l-0.67-0.67v0.67zm91.34 0q0 0.67 0.66 0.67 0.67 0 0.67-0.67 0-0.66-0.67-0.67-0.66 0.01-0.66 0.67zm-93.34 0q-0.66-0.66-0.66 0 0 0.67 0.66 0.67zm-0.66 0.66q0-0.66-0.67-0.66-0.67 0-0.67 0.66 0 0.67 0.67 0.67 0.67 0 0.67-0.67zm-2 0q-0.67 0.68-0.67 1 0 0.34 0 0.34 0.67-0.67 0.67-1 0-0.33 0-0.34zm-2.67 3.34q0-0.67-0.67-0.67-0.66 0-0.66 0.67-0.67 0-0.67 0.66 0 0.67 0.67 0.67 0.66 0 0.66-0.67 0.67 0.01 0.67-0.66zm-1.33 0q0.66 0 0.66 0.66-0.66 0.01-0.66-0.66zm-50 10.66q0-2 0.33-4 0.33-1.99 0.33-3.33 0 1.34-0.33 3.33-0.33 2-0.33 4zm41.33-6.66q0 0.67 0.67 0.66 0.66 0.01 0.66-0.66 0-0.67-0.66-0.67-0.67 0-0.67 0.67zm-1.33 2q-0.67 0-0.67 0.66 0 0.67 0.67 0.67 0.66 0 0.66-0.67 0-0.66-0.66-0.66 0.66 0 0.66-0.67 0-0.66-0.66-0.67-0.67 0.01-0.67 0.67 0 0.67 0.67 0.67zm2.66-1.34q-0.66 0.01-0.66 0.67 0 0.67 0.66 0.67 0.67 0 0.67-0.67 0-0.66-0.67-0.67zm-4 2q0.67 0.01 0.67-0.66 0-0.67-0.67-0.67-0.66 0-0.66 0.67 0 0.67 0.66 0.66zm206.67 4.67q0.66-1.33 1.33-3 0.67-1.66 0.67-2.33 0-0.67-0.67-0.67-1.33 0-1.33 4zm-207.33-2.67l-1.34-1.33-0.66 1.33zm3.33-1.33q-0.67 0-0.67 0.67 0 0.67 0.67 0.66 0.67 0.01 0.67-0.66 0-0.67-0.67-0.67zm128 8v-1.33q0-4.66-2.67-5.34 0 1.34 1 3.34 1 2 1.67 3.33zm-134-6h-1.33v0.67h1.33zm-2 4q-0.67 0-0.67 0.66h0.67zm209.33 6q1.33 0.01 2-2.33 0.67-2.33 0.67-3.67-1.33 0.01-2 2.34-0.67 2.34-0.67 3.66zm-216-4.66h0.67v-0.67q-0.67 0-0.67 0.67zm-1.33 0.66l0.67 0.67q0-0.66-0.67-0.67zm142 46h-0.67q-0.66 0.01-1.66 3.34-1 3.33-1 5.33 1.33-2 2.33-4 1-2 2.33-4 2-4 2-8h1.34q0.66 0 1.33-6.67 0-7.32 0.67-8.66 0-0.66 0.66-1.34 0-4-0.66-6-0.67-1.32-0.67-2.66 0-1.33 0-2v-1.34q-0.67-0.66-1.67-4.66-1-4-1-5.34-0.66 0.67-0.66 2.67 0 2 0.33 3.67 0.33 1.67 1 4.33v19.33q-0.67 0.01-2.33 7.34-1.67 7.34-1.67 8.66zm-144-44.66q0 0.67 0.67 0.66 0.66 0.01 0.66-0.66 0-0.67-0.66-0.67-0.67 0-0.67 0.67zm4.67 0q-0.67 0-0.67 0.66h0.67zm-4.67 0.67q-0.67-0.66-0.67 0 0 0.67 0.67 0.67zm1.33 0q-0.66 0-0.66 0.66 0 0.67 0.66 0.67 0.67 0 0.67-0.67 0-0.66-0.67-0.66zm0.67 1.33q-0.67 0-0.67 0.67 0 0.67 0.67 0.66 0.67 0.01 0.67-0.66 0-0.67-0.67-0.67zm-3.33 1.33q0-0.66-0.67-0.66-0.67 0-0.67 0.66 0 0.67 0.67 0.67 0.67 0 0.67-0.67zm220 1.34v-0.67q-0.67-0.66-0.67 0 0 0.67 0.67 0.67zm-223.34 1.33q0-0.66-0.66-0.67zm-2.67 1.34q0.67-0.67 1-0.67 0.33 0 0.33 0l-0.66-0.67zm225.33 0.67q0.67 0 0.67-0.67 0-0.66-0.67-0.66-0.67 0-0.67 0.66 0 0.67 0.67 0.67zm-227.33 0l0.66 1.33v-1.33zm227.34 1.33v-0.66q-2 0-2.67 2.66-0.67 2.68-0.67 3.34 0-0.67-0.66-0.67-0.67 0-0.67 0.67 0 0.67 0.67 0.66 0.66 0.01 0.66-0.66v2q2-2 2.67-4 0.67-0.67 0.67-2h-0.67q-0.67 0-0.67-0.67 0-0.66 0.67-0.67zm-228 0.67q0-0.66-0.67-0.67-0.66 0.01-0.66 0.67 0 0.67 0.66 0.67 0.67 0 0.67-0.67zm-2.67 2l0.67 0.67 0.67-1.34q-1.34 0.01-1.34 0.67zm5.34-0.67q-0.67 0.01-0.67 0.67h0.67zm-2 1.33l1.33 0.67q-0.67-0.66-1.33-0.67zm-6.67 2.67q0.67 0 0.67-0.67 0-0.66-0.67-0.66-0.67 0-0.67 0.66 0 0.67 0.67 0.67zm2 0q0.67 0 0.67-0.67 0-0.66-0.67-0.66-0.67 0-0.67 0.66 0 0.67 0.67 0.67zm6-0.67q0-0.66-0.67-0.66-0.66 0-0.66 0.66 0 0.67 0.66 0.67 0.67 0 0.67-0.67zm-4.67 0.67q-0.66 0-0.66 0.67h0.66zm0 1.33q-0.66 0-0.66 0.67 0 0.67 0.66 0.66 0.67 0.01 0.67-0.66 0-0.67-0.67-0.67zm-6 0.67q-0.66 0-0.66 0.66 0 0.67 0.66 0.67 0.67 0 0.67-0.67 0-0.66-0.67-0.66zm-6 0.66q-0.66 0.01-0.66 0.67 0 0.67 0.66 0.67 0.67 0 0.67-0.67 0-0.66-0.67-0.67zm9.34 1.34l-0.67-0.67v0.67zm230 0v-0.67h-0.67v0.67zm-2.66 2q0.66 0 0.66-0.67 0-0.66-0.66-0.67-0.67 0.01-0.67 0.67 0 0.67 0.67 0.67zm-228-0.67q-0.67-0.66-0.67 0 0 0.67 0.67 0.67zm230 1.33v-1.33h-0.67q0 0.67 0.67 1.33zm-142.67 0q0-0.66-0.67-0.67-0.66 0.01-0.66 0.67 0 0.67 0.66 0.67 0.67 0 0.67-0.67zm-88.67 1.33q0-1.33-1.33-1.33 0 1.34 1.33 1.33zm230 0.67v-2h-0.66q0.66 1.34 0.66 2zm-231.33-0.67q-0.67 0.01-0.67 0.67 0 0.67 0.67 0.67 0.67 0 0.67-0.67 0-0.66-0.67-0.67zm165.33 0.67q-0.66 0-0.66 0.67 0 0.67 0.66 0.66 0.67 0.01 0.67-0.66 0-0.67-0.67-0.67zm-40 0.67q0-0.67 0.67 0v0.66q-0.67 0.01-0.67-0.66zm104.67 1.33v-0.67q-0.67-0.66-0.67 0 0 0.67 0.67 0.67zm-107.33 2q0 0.67 0.66 0.67 0.67 0 0.67-0.67 0.67 0 0.67-0.67 0-0.66-0.67-0.66-0.67 0-0.67 0.66-0.66 0.01-0.66 0.67zm-132-0.67q-0.67 0.01-0.67 0.67 0 0.67 0.67 0.67 0.66 0 0.66-0.67 0-0.66-0.66-0.67zm133.33 0.67q-0.67 0-0.67-0.67 0.67 0.01 0.67 0.67zm105.33 0.67v-0.67q-0.66-0.66-0.66 0 0 0.67 0.66 0.67zm-239.33 0q-0.67 0-0.67 0.66 0 0.67 0.67 0.67 0.67 0 0.67-0.67 0-0.66-0.67-0.66zm133.33 0.66q0-0.66-0.66-0.66-0.67 0-0.67 0.66 0 0.67 0.67 0.67 0.66 0 0.66-0.67zm105.34 1.34q0.66 0 0.66-0.67 0-0.66-0.66-0.67-0.67 0.01-0.67 0.67-0.67 0-0.67 0.67 0 0.67 0.67 0.66 0.67 0.01 0.67-0.66zm-240-0.67q-0.67 0-0.67 0.67 0 0.67 0.67 0.66 0.66 0.01 0.66-0.66 0-0.67-0.66-0.67zm239.33 0q0.67 0 0.67 0.67-0.67 0-0.67-0.67zm-237.33 2.67q0-2-0.67-2v2zm-0.67 0.66q0-0.66-0.66-0.66-0.67 0-0.67 0.66 0 0.67 0.67 0.67 0.66 0 0.66-0.67zm237.34 2v-2.66q-1.34 0-1.34 2 0.67 0.67 1.34 0.66zm-139.34-2q-0.66 0.01-0.66 0.67 0 0.67 0.66 0.67 0.67 0 0.67-0.67 0-0.66-0.67-0.67zm38.67 0.67q0 0.67 0.67 0.67 0.66 0 0.66-0.67 0-0.66-0.66-0.67-0.67 0.01-0.67 0.67zm-141.33 0.67q-0.67 0-0.67 0.66 0 0.67 0.67 0.67 0.66 0 0.66-0.67 0-0.66-0.66-0.66zm240 4q1.33-1.33 1.33-2 0-1.33-1.33-1.34zm-99.34-1.33q0 0.67 0.67 0.67 0.67 0 0.67-0.67 0-0.66-0.67-0.67-0.67 0.01-0.67 0.67zm-141.33 0.67q-0.67 0-0.67 0.66 0 0.67 0.67 0.67 0.67 0 0.67-0.67 0-0.66-0.67-0.66zm240 2v-0.67q-0.67-0.66-0.67 0 0 0.67 0.67 0.67zm-240.67-0.67q-0.66 0-0.66 0.67 0 0.67 0.66 0.66 0.67 0.01 0.67-0.66 0-0.67-0.67-0.67zm103.34 0q-0.67 0-0.67 0.67h0.67zm-104.67 0.66q-0.67 0.01-0.67 0.67 0 0.67 0.67 0.67 0.67 0 0.67-0.67 0-0.66-0.67-0.67zm240 2q0 0.67 2 0.67 0-1.33-0.67-2zm-136 1.33q-0.66 0.01-0.66 0.67 0 0.67 0.66 0.67 0.67 0 0.67-0.67 0-0.66-0.67-0.67zm-106 0.67q-0.66 0-0.66 0.67 0 0.67 0.66 0.66 0.67 0.01 0.67-0.66 0-0.67-0.67-0.67zm242 0.67l0.67-0.67h-0.67zm-136.66 0q-0.67 0-0.67 0.67 0 0.67 0.67 0.66 0.66 0.01 0.66-0.66 0-0.67-0.66-0.67zm136 2v-0.67h-1.34zm-243.33 0.67q-0.67 0-0.67 0.67 0 0.67 0.67 0.66 0.67 0.01 0.67-0.66 0-0.67-0.67-0.67zm107.33 0.67q-0.66-0.67-0.66 0 0 0.67 0.66 0.66zm135.34 0.67v-0.67q-0.67 0.01-0.67 0.67zm-0.67 2q0.67 0 0.67-0.67 0-0.66-0.67-0.66-0.66 0-0.66 0.66 0 0.67 0.66 0.67zm-249.33 18.67q3.33-5.33 6.33-10.34 3-4.99 6.34-9.66-2.67 5.33-6 11-3.34 5.67-6.67 9zm248.67-18v-0.67h-0.67v0.67zm-243.33 0.66q0-0.66-0.67-0.66zm241.33 0q0 1.33 0.67 1.33v-1.33q-0.67-0.67-0.67 0zm-242.66 0.66q-0.67 0.01-0.67 0.67 0 0.67 0.67 0.67 0.66 0 0.66-0.67 0-0.66-0.66-0.67zm182.66 1.34q0 0.67 0.67 0.66 0.67 0.01 0.67-0.66 0-0.67-0.67-0.67-0.67 0-0.67 0.67zm0 0.66l-0.66-0.66-0.67 1.33q-0.67 0.67-0.67 1.33 2 0 2-2zm61.34 0.67q0.66 0 0.66-0.67 0-0.66-0.66-0.66-0.67 0-0.67 0.66 0 0.67 0.67 0.67zm-246-0.67v0.67l0.66-0.67zm244 1.34v-0.67q-0.66-0.66-0.66 0 0 0.67 0.66 0.67zm-0.66 2l0.66-0.67h-0.66zm-60.67 0h-0.67l0.67 1.33zm60 2q0.67 0.01 0.67-0.66 0-0.67-0.67-0.67-0.67 0-0.67 0.67 0 0.67 0.67 0.66zm-62 0.67q0-0.66-0.67-0.67-0.66 0.01-0.66 0.67 0 0.67 0.66 0.67 0.67 0 0.67-0.67zm61.33 0.67h0.67q0-1.33-0.67-1.34zm-2 4.67l1.34-2-0.67-0.67q-0.67 0.67-0.67 2.67zm-130-1.33q-0.66-0.67-0.66 0 0 1.33 0.66 1.33zm-116 1.33q0 0.01 0 0.34 0 0.33-0.66 1 0 0 0-0.34 0-0.32 0.66-1zm244 4q0.67 0.01 0.67-0.66 0-0.67-0.67-0.67-0.66 0-0.66 0.67 0 0.67 0.66 0.66zm-129.33 0q0 1.34 0.67 1.34v-1.34q-0.67-0.66-0.67 0zm39.33 0.67q0-0.66-0.66-0.67-0.67 0.01-0.67 0.67 0 0.67 0.67 0.67 0.66 0 0.66-0.67zm90 0.67v-0.67q-0.66-0.66-0.66 0 0 0.67 0.66 0.67zm-84.66 2q-2-2-4.67-2 2 2 4.67 2zm84-0.67q0.66 0 0.66-0.67 0-0.66-0.66-0.66-0.67 0-0.67 0.66 0 0.67 0.67 0.67zm-247.34 0q0-0.66 0.67-0.67v0.67zm118 0.67q0 0.67 0.67 0.66 0.66 0.01 0.66-0.66 0-0.67-0.66-0.67-0.67 0-0.67 0.67zm-3.33 2q0.66 0 0.66-0.67 0-0.66-0.66-0.67-0.67 0.01-0.67 0.67 0 0.67 0.67 0.67zm130.66 0q0.67 0 0.67-0.67 0-0.66-0.67-0.67-0.66 0.01-0.66 0.67 0 0.67 0.66 0.67zm-0.66 1.33v-0.67q-0.67-0.66-0.67 0 0 0.67 0.67 0.67zm-77.34 0h-0.66l0.66-0.67zm76 3.34q0.67 0 0.67-0.67 0-0.66-0.67-0.67-0.66 0.01-0.66 0.67 0 0.67 0.66 0.67zm-124.66 5.33q0-0.66-0.67-0.67-0.67 0.01-0.67 0.67 0 0.67 0.67 0.67 0.67 0 0.67-0.67zm-2 3.33l0.66-0.66q-0.66-0.67-0.66-1 0-0.33 0-0.34zm122 0v-1.33q-0.67-0.66-0.67 0 0 1.34 0.67 1.33zm-245.34-0.66q0 0.67-0.66 0.66-0.67 0.01-0.67-0.66 0-0.67 0.67-0.67 0.66 0 0.66 0.67zm-1.33 2.66q0-0.66 0.67 0l-0.67 0.67q0 0 0-0.67zm244.67 0.67v-0.67q-0.67-0.66-0.67 0 0 0.67 0.67 0.67zm-119.34 0.67q0-0.67-0.66-0.67-0.67 0-0.67 0.67 0 0.67 0.67 0.66 0.66 0.01 0.66-0.66zm118.67 0.66q0.67 0.01 0.67-0.66 0-0.67-0.67-0.67-0.67 0-0.67 0.67-0.66 0-0.66 0.66 0 0.67 0.66 0.67 0.67 0 0.67-0.67zm-0.67-0.66q0.67 0 0.67 0.66-0.67 0.01-0.67-0.66zm-119.33 0.66q-0.67-0.66-0.67 0 0 0.67 0.67 0.67zm-124.67 0.67q0 0.67-0.33 0.66-0.33 0.01-0.33 0.67v-0.67q0-0.66 0.66-0.66zm244 1.33v-0.67h-0.66zm-245.34 2v-0.66q0 0 0 0.33 0 0.34 0 0.33zm242.67 2q0.67 0.01 0.67-0.66 0-0.67-0.67-0.67-0.67 0-0.67 0.67 0 0.67 0.67 0.66zm-244 3.34q-0.67 0-0.67 0.66 0 0.67 0.67 0.67 0.67 0 0.67-0.67 0-0.66-0.67-0.66zm240.67 2.66v-0.66l-0.67 0.66zm-239.33 0v0.67q0 0 0-0.67zm238.66 2v-0.66h-0.66zm-1.34 1.33v-0.67h-0.66v0.67zm-2.67 3.33v-0.66q-0.67-0.67-0.67 0 0 0.67 0.67 0.66zm-238.67 0q-0.66 0.01-0.66 0.67 0 0.67 0.66 0.67 0.67 0 0.67-0.67 0-0.66-0.67-0.67zm126 0.67q0 0.67 0.67 0.67 0.67 0 0.67-0.67 0-0.66-0.67-0.67-0.67 0.01-0.67 0.67zm-125.33 0.67q-0.67 0-0.67 0.66h0.67zm124.67 1.34q0 0.67 0.66 0.66 0.67 0.01 0.67-0.66 0-0.67-0.67-0.67-0.66 0-0.66 0.67zm-126 0.66v2h0.66q0-2-0.66-2zm126.66 3.34q0-0.67-0.66-0.67-0.67 0-0.67 0.67 0 0.67 0.67 0.66 0.66 0.01 0.66-0.66zm-1.33 1.33q-0.67-0.66-0.67 0 0 1.34 0.67 1.33zm-127.33 8q-0.67-0.66-0.67 0 0 1.34 0.67 1.34zm64 7.33q-0.67 0-0.67-0.67 0-0.66 0.67-0.66 0.66 0 0.66 0.66 0 0.67-0.66 0.67zm2.66 3.33v1.34q0-0.67 0-0.67 0 0 0-0.67zm7.34 19.34q0.66 0 0.66 0.66v0.67q0-0.66-0.33-0.67-0.33 0.01-0.33-0.66zm-70 8q0.66 0 0.66-0.67 0-0.66-0.66-0.67-0.67 0.01-0.67 0.67 0 0.67 0.67 0.67zm0.66 2.66q0-0.66-0.66-0.66-0.67 0-0.67 0.66 0 0.67 0.67 0.67 0.66 0 0.66-0.67zm80 8.67q0-0.67-0.66-0.67-0.67 0-0.67 0.67 0 0.67 0.67 0.67 0.66 0 0.66-0.67zm2 0.67q0-0.67-0.66-0.67-0.67 0-0.67 0.67zm-81.33 0.66q0 0.67 0.66 0.67 0.67 0 0.67-0.67 0-0.66-0.67-0.66-0.66 0-0.66 0.66zm1.33 4.67q-0.67 0-0.67 0.67 0 0.66 0.67 0.66 0.67 0 0.67-0.66 0-0.67-0.67-0.67zm20 40q0.67 0 0.67-0.67 0-0.66-0.67-0.66-0.67 0-0.67 0.66 0 0.67 0.67 0.67zm1.33 0q2.67 3.33 10.34 6.67 7.66 3.33 13 3.33-6-3.33-11.34-5.33-8-2-12-4.67zm28 12q0.67 0 0.67-0.67 0-0.66-0.67-0.66-0.66 0-0.66 0.66 0 0.67 0.66 0.67z"/>
											</g>
										</g>
									</g>
								</g>
							</g>
						</g>
					</g>
				</g>
			</g>
		</g>
	</g>
	<g>
		<g id="Clip-Path" clip-path="url(#cp5)">
			<g>
				<g>
					<g>
						<g>
							<path class="s0" d="m798.73 298.37h-23.48v26.12h20.9v1.61h-20.9v28.79h23.48v1.62h-30.31v-59.77h30.31z"/>
						</g>
					</g>
				</g>
				<g>
					<g>
						<g>
							<path class="s0" d="m887.45 296.74h1.81l-19 31.83v27.94h-6.83v-26.04l-19.29-33.73h7.87l17.29 30.31z"/>
						</g>
					</g>
				</g>
				<g>
					<g>
						<g>
							<path class="s0" d="m980.46 356.51l-10.27-24.04h-23.27l-10.64 24.04h-2.17l27.06-60.89h0.59l26.02 60.89zm-32.77-25.56h21.83l-10.73-25.08z"/>
						</g>
					</g>
				</g>
				<g>
					<g>
						<g>
							<path class="s0" d="m1040.97 354.89h23.75v1.62h-30.58v-59.77h6.83z"/>
						</g>
					</g>
				</g>
				<g>
					<g>
						<g>
						</g>
					</g>
				</g>
				<g>
					<g>
						<g>
							<path class="s0" d="m1196.6 324.68q4.08 0.48 7.73 2.1 3.67 1.61 5.98 4.79 2.33 3.18 2.33 8.32 0 4.83-2.08 7.98-2.09 3.12-5.23 4.89-3.13 1.75-6.42 2.56-3.27 0.8-5.83 1-2.56 0.19-3.33 0.19h-16.34v-59.77h18.05q1.32 0 3.6 0.21 2.29 0.19 4.94 0.85 2.66 0.65 5.08 2.05 2.44 1.37 3.96 3.7 1.52 2.32 1.52 5.92 0 4.75-2.15 7.79-2.12 3.05-5.31 4.81-3.19 1.76-6.5 2.61zm-8.75-26.31h-7.6v25.93h5.12q8.38 0 13.21-3.37 4.85-3.38 4.85-10.4 0-6.93-4.33-9.54-4.31-2.62-11.25-2.62zm-2.48 56.52q5.52 0 10.09-1.13 4.56-1.14 7.31-4.19 2.75-3.03 2.75-8.64 0-3.81-1.44-7.23-1.42-3.42-5.21-5.6-3.79-2.19-11.02-2.19h-7.6v28.98z"/>
						</g>
					</g>
				</g>
				<g>
					<g>
						<g>
							<path class="s0" d="m1289.7 298.37h-23.48v26.12h20.9v1.61h-20.9v28.79h23.48v1.62h-30.31v-59.77h30.31z"/>
						</g>
					</g>
				</g>
				<g>
					<g>
						<g>
							<path class="s0" d="m1385.17 296.74v61.38h-0.29l-46.65-51.69v50.08h-1.6v-60.89h0.29l46.64 51.66v-50.54z"/>
						</g>
					</g>
				</g>
				<g>
					<g>
						<g>
							<path class="s0" d="m1493.66 295.62l7.12 60.89-6.83-0.1-5.6-47.79-24.53 46.27h-0.27l-23.66-45.5-6.36 47.12h-1.62l8.27-60.89h0.29l26.21 50.62 26.69-50.62z"/>
						</g>
					</g>
				</g>
				<g>
					<g>
						<g>
							<path class="s0" d="m1579.45 295.62q6.37 0 12.25 1.81 5.89 1.79 10.5 5.54 4.6 3.75 7.31 9.69 2.71 5.94 2.71 14.21 0 7.6-2.23 12.98-2.23 5.35-5.9 8.91-3.65 3.57-7.98 5.67-4.31 2.08-8.68 2.87-4.38 0.82-7.98 0.82-3.52 0-7.9-0.82-4.36-0.79-8.73-2.87-4.37-2.1-7.98-5.67-3.6-3.56-5.85-8.91-2.23-5.38-2.23-12.98 0-8.27 2.67-14.21 2.66-5.94 7.27-9.69 4.6-3.75 10.5-5.54 5.89-1.81 12.25-1.81zm0 60.98q4 0 8.5-1.19 4.51-1.19 8.41-4.31 3.9-3.15 6.36-9.03 2.48-5.89 2.48-15.2-0.01-7.42-1.77-12.59-1.75-5.18-4.61-8.5-2.86-3.33-6.31-5.23-3.46-1.89-6.9-2.6-3.42-0.73-6.16-0.73-2.75 0-6.19 0.73-3.42 0.71-6.83 2.6-3.43 1.9-6.32 5.23-2.9 3.32-4.66 8.5-1.75 5.17-1.75 12.59 0 9.31 2.46 15.2 2.47 5.88 6.41 9.03 3.96 3.12 8.42 4.31 4.47 1.19 8.46 1.19z"/>
						</g>
					</g>
				</g>
				<g>
					<g>
						<g>
							<path class="s0" d="m1658.21 351.95q2.46 1.98 6.21 3.71 3.75 1.7 9.83 1.71 3.9-0.01 7.21-1.52 3.33-1.52 5.38-4.61 2.04-3.1 2.04-7.75 0-4-1.63-6.56-1.6-2.56-4.31-4.27-2.69-1.71-5.94-2.94-3.23-1.25-6.5-2.62-3.27-1.38-5.97-3.28-2.71-1.89-4.34-4.89-1.6-3-1.6-7.54 0-4.48 1.71-7.61 1.7-3.14 4.45-5.08 2.75-1.96 5.88-2.85 3.14-0.9 6-0.9 3.81 0 6.79 0.9 3 0.89 4.75 1.81 1.77 0.89 1.77 0.89l0.09 1.9q-0.01 0-1.67-0.94-1.65-0.95-4.65-1.96-3-1-7.08-1-6.08 0-9.46 3.63-3.36 3.61-3.35 8.73-0.01 4.27 2.23 6.94 2.22 2.66 5.68 4.41 3.48 1.75 7.38 3.34 3.89 1.56 7.35 3.6 3.48 2.05 5.65 5.37 2.19 3.32 2.19 8.55 0 5.31-2.86 9.31-2.83 3.98-7.46 6.17-4.6 2.18-9.73 2.18-5.12 0-8.68-1.14-3.57-1.13-5.46-2.27-1.9-1.15-1.9-1.15z"/>
						</g>
					</g>
				</g>
				<g>
					<g>
						<g>
							<path class="s0" d="m1775.82 296.74h6.75v59.77h-6.75v-30.41h-27.94v30.41h-6.83v-59.77h6.83v27.75h27.94z"/>
						</g>
					</g>
				</g>
				<g>
					<g>
						<g>
							<path class="s0" d="m1860.76 298.37h-23.48v26.12h20.9v1.61h-20.9v28.79h23.48v1.62h-30.31v-59.77h30.31z"/>
						</g>
					</g>
				</g>
			</g>
		</g>
	</g>
</svg>