<svg version="1.2" xmlns="http://www.w3.org/2000/svg" viewBox="0 0 1200 488" width="1000" height="407">
	<defs>
		<clipPath clipPathUnits="userSpaceOnUse" id="cp1">
			<path d="m0.22 182.73h1199.56v170.5h-1199.56z"/>
		</clipPath>
		<clipPath clipPathUnits="userSpaceOnUse" id="cp2">
			<path d="m0 182.67h1200v170.66h-1200z"/>
		</clipPath>
		<clipPath clipPathUnits="userSpaceOnUse" id="cp3">
			<path d="m0.22 182.73h1199.56v170.5h-1199.56z"/>
		</clipPath>
	</defs>
	<style>
		.s0 { fill: #b5813a } 
		.s1 { fill: #ffffff } 
		.s2 { fill: #75a9b3 } 
	</style>
	<g>
		<g>
			<g>
				<path class="s0" d="m154.49 471.94q17.33 0 29.67-12.33 12.33-12.33 13-29.67v-373.33q-2-16-14-27-12-11-28.67-11h-8l-0.66-6.67h195.33q20.66 0 45-4 24.33-4 34.33-8v84h-6.66v-12q0-16-11-27.33-11.01-11.33-26.34-12h-136v206h112.67q13.33-0.66 22.67-10 9.33-9.33 9.33-23.33v-9.34h6.67v105.34h-6.67v-10q0-13.33-9-22.67-9-9.33-22.33-10h-113.34v199.33h95.34q49.33 0 75.33-22 26-22 43.33-65.33h6.67l-38.67 108h-276.66v-6.67z"/>
			</g>
		</g>
	</g>
	<g>
		<g>
			<g>
				<path class="s0" d="m1095.16 471.94h10.66v6.67h-144.66v-6h10q11.33 0 19.33-9 8-9 6.67-19.67l-30-335.33-140 311.33q-18.67 40.67-22.67 68h-6.67l-170.66-370-28.67 326q-1.34 10.67 6.67 19.67 7.99 9 18.66 9h10.67v6h-129.33v-6.67h10.66q18.66 0 32.34-11.33 13.66-11.33 16.33-30.67l50-427.33h6.67l186 402 182-402h6l51.33 427.33q3.33 26.67 26.67 37.34 10 4.67 22 4.66z"/>
			</g>
		</g>
	</g>
	<g id="Clip-Path" clip-path="url(#cp1)">
		<g>
			<g>
				<g id="Clip-Path" clip-path="url(#cp2)">
					<g>
						<g id="Clip-Path" clip-path="url(#cp3)">
							<g>
								<path class="s1" d="m0.22 182.73h1199.47v170.5h-1199.47z"/>
							</g>
						</g>
					</g>
				</g>
			</g>
		</g>
	</g>
	<g>
		<g>
			<g>
				<path class="s2" d="m185.91 299.38q2.83 0 4.86-2.02 2.04-2.02 2.14-4.86v-60.95q-0.21-2.86-1.64-4.17-2.63-2.42-5.36-2.42h-1.41v-1.08h41.91q5.36 0 8.86-0.81 3.5-0.83 4.27-1.17v19.17l-1.11-0.13v-1.19q0-6.78-5.02-9.64-2.42-1.41-5.68-1.52h-18.4v31.83h14.44q4.06-0.1 6.69-2.77 2.62-2.69 2.62-6.63v-1h1.08v25.3h-1.08v-0.88q0-4.06-2.58-6.69-2.57-2.62-6.5-2.73h-14.67v30.75h14.33q8 0.01 13.42-4.58 5.42-4.6 8.04-13.04h1.09l-5.03 22.33h-56.68v-1.1z"/>
			</g>
		</g>
	</g>
	<g>
		<g>
			<g>
				<path class="s2" d="m322.25 235.92h-1.42q-2.85 0-5.41 1.54-2.57 1.53-4.21 3.81l-19.48 29.98v22.34q0.1 2.42 1.85 4.1 1.75 1.69 4.38 1.69h1.21v1.1h-30.65v-1.1h1.31q2.52 0 4.28-1.69 1.74-1.68 1.85-4.1v-22.34l-19.38-29.98q-1.52-2.39-4.1-3.87-2.56-1.48-5.52-1.48h-1.31v-1.1h33.27v1.1h-1.21q-2.09 0-3.02 1.38-0.92 1.35-0.92 2.29 0 0.92 0.44 1.68l14.56 25.17 14.77-25.17q0.33-0.76 0.34-1.68 0-0.94-0.94-2.29-0.94-1.38-3-1.38h-1.11v-1.1h23.42z"/>
			</g>
		</g>
	</g>
	<g>
		<g>
			<g>
				<path class="s2" d="m391.3 299.38h0.87v1.1h-32.17v-1.1h0.88q2.18 0 3.17-1.31 1-1.31 1-2.4 0-1.1-0.44-2.29l-4.27-10.08h-23.21l-4.38 10.18q-0.43 1.09-0.43 2.25-0.01 1.15 1.04 2.4 1.04 1.25 3.23 1.25h0.87v1.1h-21.89v-1.1h0.87q2.31 0 4.61-1.42 2.28-1.41 3.7-4.27l22.67-48.58q4.81-10.83 5.02-13.36h1l29.34 61.5q1.41 3.19 3.77 4.67 2.35 1.46 4.75 1.46zm-52.32-20.36h19.48l-9.62-22.85z"/>
			</g>
		</g>
	</g>
	<g>
		<g>
			<g>
				<path class="s2" d="m392.62 300.48v-1.1h1.31q2.5 0 4.19-1.63 1.7-1.64 1.71-4.06v-51.98q0-2.39-1.75-4.08-1.76-1.71-4.15-1.71h-1.31v-1.1h30.41v1.1h-1.31q-2.52 0-4.27 1.65-1.75 1.62-1.75 4.14v54.4h13.13q6.79-0.1 11.5-4.21 4.7-4.1 6.89-11.56h1.21l-4.27 20.14z"/>
			</g>
		</g>
	</g>
	<g>
		<g>
			<g>
			</g>
		</g>
	</g>
	<g>
		<g>
			<g>
				<path class="s2" d="m515.4 300.48h-34.59v-1.1h1.42q3.93 0 6.02-3.38 0.87-1.53 0.98-3.39v-60.86q-0.11-2.82-2.15-4.81-2.02-1.98-4.85-1.98h-1.42v-1.08h31.73q12.69 0 20.19 4.6 7.5 4.59 7.6 14.11-0.11 4.81-2.08 8.43-3.61 6.78-11.38 7.78 8.44 0.75 13.9 6.29 5.48 5.52 5.48 14.06 0 10.27-8.27 15.81-8.25 5.52-22.58 5.52zm7.43-56.48q-0.11-15.41-14.02-15.41h-3.16v66.85h5.04q0.1 0 0.21 0 7.56 0 12.04-4.37 4.47-4.38 4.48-13.34-0.01-8.97-5.05-13.35-5.02-4.39-13-4.4v-0.98q5.69 0.01 9.53-3.66 3.82-3.67 3.93-11.34z"/>
			</g>
		</g>
	</g>
	<g>
		<g>
			<g>
				<path class="s2" d="m605.23 300.48h-51.54v-1.1h1.31q2.5 0 4.19-1.63 1.7-1.64 1.83-4.06v-52.08q-0.13-2.42-1.83-4.04-1.69-1.65-4.19-1.65h-1.31v-1.1h38.52q2.94 0 6.44-0.55 3.51-0.54 4.93-1.1v17.42h-1.1v-1q0-4.81-2.63-7.54-2.62-2.73-7.33-2.86h-15.75v26.61h12.48q3.7-0.1 6-2.53 2.31-2.41 2.31-6.12v-0.77h1.11v23.21h-1.11v-0.77q0-5.14-3.83-7.44-1.96-1.21-4.38-1.21h-12.58v25.94h13.13q6.79-0.1 11.54-4.21 4.77-4.1 6.96-11.56h0.97z"/>
			</g>
		</g>
	</g>
	<g>
		<g>
			<g>
				<path class="s2" d="m663.88 234.82h30.75v1.1h-1.86q-2.52 0-4.23 1.54-1.69 1.53-1.79 3.92v47.83q0 6.8 0.88 11.17l0.2 1.52h-0.98l-50.22-44.31v36.23q0.1 2.4 1.79 3.98 1.7 1.58 4.23 1.58h1.85v1.1h-30.65v-1.1h1.75q2.52 0 4.28-1.58 1.75-1.58 1.75-3.98v-48.17q0-6.56-0.88-10.83l-0.21-1.52 0.98 0.1 50.13 44.1v-36q-0.01-2.41-1.71-4-1.69-1.58-4.21-1.58h-1.85z"/>
			</g>
		</g>
	</g>
	<g>
		<g>
			<g>
				<path class="s2" d="m790.8 299.38h1.54v1.1h-30.43v-1.1h1.54q2.08 0 3-1.42 0.93-1.41 0.71-2.96l-4.25-31.29-17.42 27.69q-3.94 6.23-3.94 11.17h-0.98l-25.27-38.32-3.73 30.75q-0.23 1.55 0.75 2.96 1 1.42 2.98 1.42h1.52v1.1h-20.79v-1.1h1.54q2.73 0 4.75-1.58 2.02-1.58 2.36-4.32l8.54-60.08h0.87l30.96 46.29 29-46.29h1l8.75 60.62q0.54 2.53 2.5 3.94 1.98 1.42 4.5 1.42z"/>
			</g>
		</g>
	</g>
	<g>
		<g>
			<g>
				<path class="s2" d="m795.07 267.67q0-15.77 10.56-25.02 10.56-9.25 28.12-9.25 17.56 0 28.17 9.25 10.63 9.25 10.63 25.02 0 15.75-10.63 25-10.61 9.23-28.12 9.23-17.5 0-28.13-9.23-10.61-9.25-10.6-25zm16.75-0.02q0 13.8 5.96 21.83 5.95 8.05 15.95 8.04 10.02 0.01 15.98-8.04 5.98-8.03 5.98-21.83 0-13.79-5.98-21.83-5.96-8.04-15.98-8.05-10 0.01-15.95 8.05-5.96 8.04-5.96 21.83z"/>
			</g>
		</g>
	</g>
	<g>
		<g>
			<g>
				<path class="s2" d="m881.3 291.5q-0.01-7.1 3.16-12.14h0.88q-0.11 0.77-0.11 1.41 0 6.69 4.75 11.73 4.77 5.03 13.3 5.02 6.14 0.01 9.47-2.83 3.34-2.85 3.34-6.35 0-3.5-1.92-5.63-1.92-2.14-6.29-5l-15.54-9.83q-9.86-6.14-9.86-15.77 0-0.98 0.13-2.09 0.64-7.76 6-12.18 5.37-4.44 12.64-4.44 7.29 0 15.38 0.98h5.92l-1.55 14.46h-0.97q0-5.14-3.57-8.11-3.54-2.95-9.39-2.96-5.86 0.01-9.25 2.46-3.4 2.46-3.4 6.52 0 3.28 3.29 5.69 1.32 0.98 3.82 2.52l17.41 10.73q8.96 5.46 8.96 15.08 0 10.19-7.17 15.67-7.17 5.46-18.54 5.46-7 0-12.37-1.63-5.36-1.64-7.88-4.16-0.65-1.98-0.64-4.61z"/>
			</g>
		</g>
	</g>
	<g>
		<g>
			<g>
				<path class="s2" d="m1009.77 299.38h1.19v1.1h-30.09v-1.1h1.09q2.51 0 4.27-1.63 1.75-1.64 1.75-4.16v-23.65h-28.77v23.65q0.1 2.52 1.85 4.16 1.75 1.63 4.17 1.63h1.18v1.1h-30.18v-1.1h1.18q2.52 0 4.27-1.69 1.75-1.68 1.75-4.1v-51.88q0-2.39-1.75-4.08-1.75-1.71-4.27-1.71h-1.18v-1.1h30.18v1.1h-1.18q-2.42 0-4.17 1.65-1.75 1.62-1.85 4.04v23.96h28.77v-23.86q-0.01-3.39-2.96-5.04-1.42-0.75-3.06-0.75h-1.09v-1.1h30.09v1.1h-1.19q-2.42 0-4.17 1.65-1.75 1.62-1.85 4.14v51.98q0.1 3.4 2.96 4.94 1.41 0.75 3.06 0.75z"/>
			</g>
		</g>
	</g>
	<g>
		<g>
			<g>
				<path class="s2" d="m1069.83 300.48h-51.54v-1.1h1.32q2.5 0 4.18-1.63 1.71-1.64 1.84-4.06v-52.08q-0.13-2.42-1.84-4.04-1.68-1.65-4.18-1.65h-1.32v-1.1h38.52q2.94 0 6.44-0.55 3.52-0.54 4.94-1.1v17.42h-1.11v-1q0-4.81-2.62-7.54-2.63-2.73-7.33-2.86h-15.75v26.61h12.48q3.7-0.1 6-2.53 2.31-2.41 2.31-6.12v-0.77h1.1v23.21h-1.1v-0.77q0-5.14-3.84-7.44-1.96-1.21-4.37-1.21h-12.58v25.94h13.12q6.79-0.1 11.54-4.21 4.77-4.1 6.96-11.56h0.98z"/>
			</g>
		</g>
	</g>
</svg>